/* XPM */
static char *_65838bfa33d4baaa05e54aea2354c71Ea511uqBHW96RnZB[] = {
/* columns rows colors chars-per-pixel */
"64 58 142 2 ",
"   c None",
".  c #000000",
"X  c #0B0202",
"o  c #130404",
"O  c #1B0505",
"+  c #1F0808",
"@  c #240606",
"#  c #290707",
"$  c #250808",
"%  c #2B0909",
"&  c #330B0B",
"*  c #3C0D0D",
"=  c #430E0E",
"-  c #4B0E0E",
";  c #520F0F",
":  c #461010",
">  c #4B1111",
",  c #531212",
"<  c #5B1414",
"1  c #641515",
"2  c #6B1616",
"3  c #6B1818",
"4  c #741A1A",
"5  c #7B1B1B",
"6  c #841C1C",
"7  c #8A1D1D",
"8  c #931E1E",
"9  c #991F1F",
"0  c #8C2121",
"q  c #952121",
"w  c #9D2323",
"e  c #A42424",
"r  c #AC2525",
"t  c #AD2929",
"y  c #B42626",
"u  c #B92727",
"i  c #B42A2A",
"p  c #BC2A2A",
"a  c #C42A2B",
"s  c #CB2C2C",
"d  c #D32D2D",
"f  c #DC2E2E",
"g  c #CD3131",
"h  c #D73030",
"j  c #D53333",
"k  c #DA3030",
"l  c #DB3030",
"z  c #DD3434",
"x  c #DD3333",
"c  c #E02E2E",
"v  c #E52D2D",
"b  c #E82F2F",
"n  c #ED2E2E",
"m  c #EF2F2F",
"M  c #EE2F2F",
"N  c #F02F2F",
"B  c #F12F2F",
"V  c #F22F2F",
"C  c #F12F2F",
"Z  c #E23231",
"A  c #E13232",
"S  c #E33333",
"D  c #E63232",
"F  c #E23535",
"G  c #E93232",
"H  c #E83333",
"J  c #E93333",
"K  c #ED3333",
"L  c #EB3434",
"P  c #EF3434",
"I  c #EE3535",
"U  c #EC3434",
"Y  c #E73838",
"T  c #EB3838",
"R  c #F03030",
"E  c #F13030",
"W  c #F23030",
"Q  c #F33030",
"!  c #F23131",
"~  c #F03333",
"^  c #F43131",
"/  c #F63030",
"(  c #F63131",
")  c #F73131",
"_  c #F63232",
"`  c #F03434",
"'  c #F03535",
"]  c #F13535",
"[  c #F33434",
"{  c #F23535",
"}  c #F33535",
"|  c #F43535",
" . c #F53535",
".. c #F63535",
"X. c #F73535",
"o. c #F53636",
"O. c #F73636",
"+. c #F23030",
"@. c #F83030",
"#. c #F83131",
"$. c #F93131",
"%. c #FA3131",
"&. c #F93232",
"*. c #F93333",
"=. c #FC3131",
"-. c #FE3131",
";. c #FF3131",
":. c #FC3232",
">. c #FD3232",
",. c #FF3232",
"<. c #FF3333",
"1. c #F93737",
"2. c #FA3636",
"3. c #FB3737",
"4. c #FD3535",
"5. c #FF3434",
"6. c #FF3535",
"7. c #FD3636",
"8. c #FC3737",
"9. c #FD3737",
"0. c #FF3636",
"q. c #FE3737",
"w. c #FF3737",
"e. c #FE3434",
"r. c #F53C3C",
"t. c #F43A3A",
"y. c #F93838",
"u. c #FB3838",
"i. c #FD3939",
"p. c #FE3838",
"a. c #FF3838",
"s. c #FF3939",
"d. c #FF3A3A",
"f. c #FF3B3B",
"g. c #FF3C3C",
"h. c #FF3E3E",
"j. c #FF3F3F",
"k. c #FF3B3B",
"l. c #FF4141",
"z. c #FF4343",
"x. c #FF4343",
"c. c #FF4848",
/* pixels */
"                                                                                                                                ",
"                                                    . . . . . . . . . . .                                                       ",
"                                    . . . . . . X % * - < 3 4 3 3 4 2 < - * $ . . . . . . .                                     ",
"                          . . . . . @ , 6 u f U | q.s.s.s.| U ' ' ' ' q.s.q.q.| H f u 6 , @ . . . . .                           ",
"                  . . . . . % 4 a | s.s.' l r 6 1 > & % O X . X X X X O $ & > 1 5 r d ' s.s.' a 5 % . . . . .                   ",
"            . . . . . * e | s.3.s 6 > O . . . . . . . . . . . . . . . . . . . . . . . . O > 7 d q.g.q.y > . . . . .             ",
"        . . . . O q | g.Z 7 * . . . . . . . . . . , < . . . . . . . . . . & , . . . . . . . . . . * q ' g.s.r & . . . . .       ",
"    . . . . & s g.H 6 O . . . . . . . . . . . . . z i . . . . . . . . . . 4 r.. . . . . . . . . . . . . % q s.l.G < . . . . .   ",
"  . . . . q s.p & . . . . . . . . . . . . . . . : l.d . . . . . . . . . . y l.1 . . . . . . . . . . . . . . . , Z l.d X . . .   ",
"    . . o l.3 . . . . . . . . . . . . . . . . . i g./ @ . . . . . . . . . f g.s . . . . . . . . . . . . . . . . . 5 g.O . .     ",
"    . . . H 3 . . . . . . . . . . . . . . . . * s.,.s., . . . . . . . . % q.,.s., . . . . . . . . . . . . . . . . 1 H . . .     ",
"    . . . H 6 . . . . . . . . . . . . . . . . r s.m s.6 . . . . . . . . 1 s.B q.p . . . . . . . . . . . . . . . . 6 H . . .     ",
"      . . h e . . . . . . . . . . . . . . . % s.,.m q.r . . . . . . . . q g.B &.g.> . . . . . . . . . . . . . . . r j . .       ",
"      . . y l . . . . . . . . . . . . . . . e s.m B q.c . . . . . . . . a q.B m s.i . . . . . . . . . . . . . . . d r . .       ",
"      . . 5 q.. . . . . . . . . . . . . . @ 3.,.W W ,.q.& . . . . . . o W ,.W W &.s.= . . . . . . . . . . . . . . U 4 . .       ",
"      . . > s.% . . . . . . . . . . . . . 0 s.B W W B q.1 . . . . . . : s.&.W W V s.t . . . . . . . . . . . . . @ s.: . .       ",
"      . . O s.1 . . . . . . . . . . . . o U q.V W W B s.8 . . . . . . 4 s.W W W W ,.q.& . . . . . . . . . . . . < i.o .         ",
"        . . D e . . . . . . . . . . . . 6 s.B W W W B q.a . . @ % . . e s.W W W W m s.e . . . . . . . . . . . . w l . .         ",
"        . . w ' . . . . . . . . . . . . l q.B W W W W / B p d &.,.f p b / W W W W W ,.| O . . . . . . . . . . . F q . .         ",
"        . . , g.$ . . . . . . . . . . . a q.B W W W W m / s.q.,.,.q.s./ m W W W B K q.l . . . . . . . . . . . @ s.> . .         ",
"          . X s.5 . . . . . . . . . . . 6 s.m W W W W W W W W W B W B W W W W W B B s.e . . . . . . . . . . . 4 t.X .           ",
"          . . p g . . . . . . . . . . . , s./ W W W W W W W W W W W W W W W W W W W s.4 . . . . . . . . . . . a p . .           ",
"          . . 3 g.O . . . . . . . . . . @ &.,.W W W W W W W W W W W W W W W W W B &.q.* . . . . . . . . . . o s.< . .           ",
"            . X i.4 . . . . . . . . . . . d q.W W W W W W W W W W W W W W W W W B e.m o . . . . . . . . . . 4 t.. .             ",
"            . . r z . . . . . . . . . . . w s.B W W W W W W W W W W W W W W W B W q.p . . . . . . . . . . . z e . .             ",
"              . * l.* . . . . . . . . . . 2 s.a.s.&.W B W B W W W W B B B B ,.q.s.s.7 . . . . . . . . . . * l.& .               ",
"              . . z p . . . . . . . . . . = *.6 y q.s.s.q.V W W W W B ,.s.s.q.s 2 d 3 . . . . . . . . . . i l . .               ",
"                . < j.$ . . . . . . . . . > g.: . O 2 u &.g./ m W W a.q.a 4 $ . . | 5 . . . . . . . . . @ l.< .                 ",
"                . . t.e . . . . . . . . . 2 l.6 . . . . X 1 b ,./ ,.7 o . . . . % g.q . . . . . . . . . w t.. .                 ",
"                  . 4 l.O . . . . . . . . 6 g.u . . . . . . r s.,.3.O . . . . . 2 l.r . . . . . . . . O l.3 .                   ",
"                  . . r.e . . . . . . . . e q.q.a % . . . . e q.,.W o . . . X 7 ,.q.a . . . . . . . . e i.. .                   ",
"                    . 3 l.% . . . . . . . a q.B s.s.w o . . 8 s.q.f . . . 1 U g.&.q.f . . . . . . . % l.3 .                     ",
"                    . . T a . . . . . . . d q.W m &.g.K O . 4 s.q.s . . e l.q.B B ,./ o . . . . . . a T . .                     ",
"                      . , z.> . . . . . o W ,.B B W ,.&.o . 1 q.q.u . . r s.B B W &.q.& . . . . . > z., .                       ",
"                      . . g Y . . . . . * q.&.B B W q.s . . , q.q.e . . 5 s.B W W / s.< . . . . . T g . .                       ",
"                        . @ l.0 . . . . : s.&.W W B q.a . . * e.s.8 . . 2 s./ W W / g.< . . . . 0 l.@ .                         ",
"                          . 4 z.& . . . . q g.B W B q.p . . % q.s.5 . . 1 q.V / B s.p . . . . * z.5 .                           ",
"                          . . j F . . . . . j s.B B q.p . . * q.s.8 . . 1 q./ m q.F o . . . . Y j . .                           ",
"                            . $ l.w . . . . % | ,.m q.a . . < q.s.r . . 2 s.B &.s.= . . . . w l.% .                             ",
"                              . < c., . . . . < s.&.,.d . . 5 s.q.s . . 7 s.V g.5 . . . . < c.1 .                               ",
"                                . w l.@ . . . . q g.,.K X . 9 q.,.v . . w q.s.y . . . . % z.t .                                 ",
"                                . . j t.X . . . . a g.&.$ . r q.,.&.O . u l.l o . . . o r.h . .                                 ",
"                                  . o r.g . . . . $ / g.= . a q.&.q.& . v s.* . . . . h g.O .                                   ",
"                                    . % l.t . . . . e l.2 . v q.B q.= X s.d . . . . p z.% .                                     ",
"                                      . * z.w . . . 6 l.q X i.s.,.l.< & l.r . . . e z.= .                                       ",
"                                        . - c.w . . 1 g.d o 4 v / y X 4 l.6 . . t c.; .                                         ",
"                                          . - z.t . = s.s.* . X o . . d g.< . i c., .                                           ",
"                                            . & z.p X c g.7 . . . . & s.q.& i l.= .                                             ",
"                                              . $ i.z d q.d . . . . 6 s.v t.r.# .                                               ",
"                                                . X d g.,.q.> . . . d s.s.f o .                                                 ",
"                                                  . . 6 s.l.e . . > g.g.7 . .                                                   ",
"                                                    . . * i.U . . q g.* . .                                                     ",
"                                                      . . O 5 X . * % . .                                                       ",
"                                                          . . . . . .                                                           ",
"                                                            . . . .                                                             ",
"                                                              . .                                                               ",
"                                                                                                                                ",
"                                                                                                                                "
};
