/* XPM */
static char *_f3bf7e144734215fbf43c74352ce9e7Mjp6pa0JcJ5Zt5Wr[] = {
/* columns rows colors chars-per-pixel */
"16 15 109 2 ",
"   c None",
".  c black",
"X  c #030101",
"o  c #040101",
"O  c #060202",
"+  c #070202",
"@  c #090202",
"#  c #0A0202",
"$  c #080404",
"%  c #0D0606",
"&  c #1E0607",
"*  c #260909",
"=  c #270909",
"-  c #280909",
";  c #290B0B",
":  c #2B0B0B",
">  c #320B0B",
",  c #330B0B",
"<  c #330C0C",
"1  c #320D0D",
"2  c #370E0E",
"3  c #390F0F",
"4  c #3B0F0F",
"5  c #491010",
"6  c #4B1010",
"7  c #4A1212",
"8  c #4C1010",
"9  c #511212",
"0  c #521313",
"q  c #551212",
"w  c #541313",
"e  c #571212",
"r  c #541414",
"t  c #571515",
"y  c #581313",
"u  c #5A1313",
"i  c #591414",
"p  c #5C1414",
"a  c #5F1616",
"s  c #601515",
"d  c #621515",
"f  c #621616",
"g  c #621717",
"h  c #691717",
"j  c #6C1717",
"k  c #6E1718",
"l  c #631818",
"z  c #661818",
"x  c #6B1818",
"c  c #6D1818",
"v  c #6F1818",
"b  c #6C1B1B",
"n  c #721818",
"m  c #741919",
"M  c #771B1B",
"N  c #711C1C",
"B  c #731C1C",
"V  c #741C1C",
"C  c #741D1D",
"Z  c #791B1A",
"A  c #791B1B",
"S  c #7D1B1B",
"D  c #7A1D1D",
"F  c #7D1C1C",
"G  c #7E1D1D",
"H  c #7C1E1E",
"J  c #7D1E1E",
"K  c #7E1E1E",
"L  c #811E1E",
"P  c #801F1F",
"I  c #861E1F",
"U  c #861F1F",
"Y  c #832020",
"T  c #842020",
"R  c #862020",
"E  c #8B2121",
"W  c #8D2222",
"Q  c #932121",
"!  c #912222",
"~  c #962424",
"^  c #A02525",
"/  c #A52929",
"(  c #B12626",
")  c #B22727",
"_  c #B52526",
"`  c #B72626",
"'  c #B12A2A",
"]  c #B42828",
"[  c #BB2929",
"{  c #BF2929",
"}  c #D63131",
"|  c #D73333",
" . c #E13131",
".. c #E53131",
"X. c #E53333",
"o. c #E23434",
"O. c #E73737",
"+. c #E93232",
"@. c #ED3232",
"#. c #E93737",
"$. c #EF3636",
"%. c #FF3434",
"&. c #FF3535",
"*. c #FF3737",
"=. c #FE3837",
"-. c #FF3838",
";. c #FF3939",
":. c #FF3E3E",
">. c #FF3F3F",
/* pixels */
"          y 5 j v 8 w           ",
"  & x Z s u p , > w y s S Z *   ",
"# I 5 # . $ ' . . / % . # 9 Q # ",
"  Z . . . J >.. . :.R . . . m   ",
"  z * . o ..;.h s ;.@.# . * s   ",
"  t t . .  .*.*.;.%.+.o . 9 t   ",
"    V . . J #.%.%.#.L . . N     ",
"    J < . P < ( { ; J . < J     ",
"      R . X.] j n ~ $.. Y       ",
"      N 3 Q =.k k o.^ 4 V       ",
"        E : U _ ` H 2 W         ",
"          b l [ ( s V           ",
"            | J l |             ",
"              i 5               ",
"                                "
};
