/* XPM */
static char *f2bc83ae2bdc40b9f578f16cdc918d2ckC0Ma7KdzyFZiD5w[] = {
/* columns rows colors chars-per-pixel */
"32 29 110 2 ",
"   c None",
".  c #000000",
"X  c #0B0101",
"o  c #130505",
"O  c #1C0606",
"+  c #200707",
"@  c #240808",
"#  c #2C0A0A",
"$  c #330C0C",
"%  c #3B0E0E",
"&  c #420F0F",
"*  c #451212",
"=  c #4C1212",
"-  c #521313",
";  c #5C1515",
":  c #621616",
">  c #631A1A",
",  c #6D1919",
"<  c #701B1B",
"1  c #7D1C1C",
"2  c #831D1D",
"3  c #8B1E1E",
"4  c #921F1F",
"5  c #872020",
"6  c #8C2222",
"7  c #942222",
"8  c #9C2424",
"9  c #A32525",
"0  c #AA2525",
"q  c #A22828",
"w  c #AC2A2A",
"e  c #B42727",
"r  c #B42A2A",
"t  c #BC2C2C",
"y  c #C42C2C",
"u  c #CC2B2B",
"i  c #C92C2C",
"p  c #CF2C2C",
"a  c #CC2C2C",
"s  c #D42E2E",
"d  c #DA2C2C",
"f  c #DB2D2D",
"g  c #DA2F2F",
"h  c #DD2F2F",
"j  c #C33030",
"k  c #CA3131",
"l  c #CC3131",
"z  c #CD3232",
"x  c #CE3232",
"c  c #D53333",
"v  c #D73232",
"b  c #D33535",
"n  c #D73636",
"m  c #DB3030",
"M  c #DA3131",
"N  c #D83232",
"B  c #DF3030",
"V  c #DC3535",
"C  c #E22F2F",
"Z  c #E32F2F",
"A  c #F12E2E",
"S  c #F02F2F",
"D  c #F12F2F",
"F  c #F22F2F",
"G  c #F42F2F",
"H  c #E43030",
"J  c #E63333",
"K  c #E23737",
"L  c #E73535",
"P  c #E23737",
"I  c #E93030",
"U  c #EC3030",
"Y  c #EC3333",
"T  c #ED3333",
"R  c #E53939",
"E  c #F13030",
"W  c #F13232",
"Q  c #F43131",
"!  c #F73333",
"~  c #F43434",
"^  c #F83131",
"/  c #F93131",
"(  c #FB3131",
")  c #FB3232",
"_  c #FA3333",
"`  c #FB3333",
"'  c #FC3131",
"]  c #FF3232",
"[  c #FF3333",
"{  c #FC3535",
"}  c #FF3434",
"|  c #FF3535",
" . c #FF3636",
".. c #FF3737",
"X. c #F93838",
"o. c #FF3838",
"O. c #FF3938",
"+. c #FF3939",
"@. c #FF3A3A",
"#. c #FF3B3B",
"$. c #FF3C3C",
"%. c #FF3D3D",
"&. c #FF3E3E",
"*. c #FF3F3F",
"=. c #FC3B3B",
"-. c #FF4040",
";. c #FF4141",
":. c #FF4242",
">. c #FF4444",
",. c #FF4545",
/* pixels */
"                          O # # # # O                           ",
"                O = 1 3 3 8 9 9 9 9 4 3 3 1 = O                 ",
"        . % 3 9 r 8 3 1 = % $ # # $ & = 1 3 8 e 0 7 % .         ",
"  . . ; e 9 2 % . . . . - = . . . . $ = . . . . % 2 e i , . .   ",
". . , y $ . . . . . . . K 9 . . . . 2 R . . . . . . . % v 2 .   ",
"  . 6 : . . . . . . . * -.e . . . . 9 >.= . . . . . . . : 6 .   ",
"  . 3 2 . . . . . . . w -.f . . . . s $.t . . . . . . . 2 2 .   ",
"    : 6 . . . . . . $ o.] | # . . O ! ] o.* . . . . . . 3 :     ",
"    # r . . . . . . 0 $.D o.; . . = o.D o.r . . . . . . w #     ",
"    . 0 # . . . . X L | D _ Z U U C _ D | ~ o . . . . # 9 .     ",
"    . 7 5 . . . . . e o.D D _ ] | ] D D | y . . . . . 1 7 .     ",
"      * 8 . . . . . 1 o.D D W W D W W D o.3 . . . . . 8 *       ",
"      . w % . . . . & o.o.o.] U S _ | o.$.- . . . . $ w .       ",
"        5 8 . . . . * 9 ; y | ] W | p ; 6 - . . . . 8 1         ",
"        X j @ . . . ; l . . @ W o.& . . w 1 . . . @ y o         ",
"          6 q . . . : -.y o . s | . . 0 -.< . . . 8 6           ",
"          X b % . . 2 o.$.L . e Y . t -.$.7 . . % l X           ",
"            < t . . 8 o.] C . 0 B . w | $.w . . t ,             ",
"              t 1 . # =.o.u . 9 m . 9 o.-.% . 1 t               ",
"              O b % . > -.f . e U . 0 >.< . % n +               ",
"                = b X . q o.X i | X m j . X n -                 ",
"                  5 j . X v - C o.= i O . k 5                   ",
"                    6 r . r 5 e m > 0 . r 7                     ",
"                      6 8 e y . . 7 p q 6                       ",
"                        ; o.$.X . K $.>                         ",
"                          @ =., # K #                           ",
"                            O @ o O                             ",
"                              . .                               ",
"                                                                "
};
