<?xml version="1.0" encoding="UTF-8" standalone="no"?>
<svg
   xmlns:dc="http://purl.org/dc/elements/1.1/"
   xmlns:cc="http://creativecommons.org/ns#"
   xmlns:rdf="http://www.w3.org/1999/02/22-rdf-syntax-ns#"
   xmlns:svg="http://www.w3.org/2000/svg"
   xmlns="http://www.w3.org/2000/svg"
   xmlns:sodipodi="http://sodipodi.sourceforge.net/DTD/sodipodi-0.dtd"
   xmlns:inkscape="http://www.inkscape.org/namespaces/inkscape"
   width="24px"
   height="24px"
   viewBox="0 0 24 24"
   version="1.1"
   id="svg781"
   sodipodi:docname="bg-multi-number-dark.svg"
   inkscape:version="0.92.3 (2405546, 2018-03-11)">
  <metadata
     id="metadata787">
    <rdf:RDF>
      <cc:Work
         rdf:about="">
        <dc:format>image/svg+xml</dc:format>
        <dc:type
           rdf:resource="http://purl.org/dc/dcmitype/StillImage" />
        <dc:title>Top BarTheme Copy</dc:title>
      </cc:Work>
    </rdf:RDF>
  </metadata>
  <defs
     id="defs785" />
  <sodipodi:namedview
     pagecolor="#ffffff"
     bordercolor="#666666"
     borderopacity="1"
     objecttolerance="10"
     gridtolerance="10"
     guidetolerance="10"
     inkscape:pageopacity="0"
     inkscape:pageshadow="2"
     inkscape:window-width="1449"
     inkscape:window-height="845"
     id="namedview783"
     showgrid="false"
     inkscape:zoom="9.8333333"
     inkscape:cx="-3.9661017"
     inkscape:cy="12"
     inkscape:window-x="67"
     inkscape:window-y="27"
     inkscape:window-maximized="0"
     inkscape:current-layer="svg781" />
  <!-- Generator: Sketch 52.6 (67491) - http://www.bohemiancoding.com/sketch -->
  <title
     id="title774">Top BarTheme Copy</title>
  <desc
     id="desc776">Created with Sketch.</desc>
  <g
     id="Top-BarTheme-Copy"
     stroke="none"
     stroke-width="1"
     fill="none"
     fill-rule="evenodd">
    <circle
       id="Oval"
       fill="#0F0B16"
       fill-rule="nonzero"
       cx="12"
       cy="12"
       r="12" />
    <path
       d="M12,3 C7.02943725,3 3,7.02943725 3,12 C3,16.9705627 7.02943725,21 12,21 C16.9705627,21 21,16.9705627 21,12 C21,9.61305159 20.0517884,7.32386638 18.363961,5.63603897 C16.6761336,3.94821156 14.3869484,3 12,3 Z"
       id="Path_18926"
       stroke="#B088FF"
       stroke-width="1.5"
       fill="#0F0B16"
       fill-rule="nonzero" />
  </g>
  <path
     style="fill:#88aa00;fill-opacity:1;stroke-width:0.10169491"
     d="M 10.352568,21.564954 C 9.4269032,21.411655 7.8595585,20.82334 6.9725571,20.296242 5.8511597,19.629853 4.3701465,18.148841 3.7037587,17.027443 3.1537506,16.101889 2.5877101,14.559821 2.4257528,13.545763 2.1540599,11.84462 2.4026072,9.7854487 3.0643917,8.2547509 3.6052989,7.0036404 4.0164688,6.3797993 4.952045,5.3907382 6.3403569,3.9230596 7.8884673,3.0212429 9.8440678,2.541001 11.138776,2.223056 13.007392,2.2490115 14.369492,2.6038602 c 3.459799,0.9013328 6.127802,3.5696149 7.025912,7.0266483 0.213604,0.8222105 0.26522,1.2603725 0.269548,2.2881355 0.0117,2.780411 -0.849706,4.880071 -2.820884,6.875809 -1.476726,1.495125 -3.058128,2.35383 -5.019709,2.725715 -0.915347,0.173536 -2.565806,0.194827 -3.471791,0.04479 z m 4.016924,-1.609912 c 2.793635,-0.887668 4.909911,-3.085346 5.662336,-5.880136 0.299371,-1.111982 0.295839,-3.009665 -0.0077,-4.1393128 C 19.226214,6.9661539 17.033846,4.7737866 14.064407,3.9758769 12.934758,3.6723323 11.037076,3.6688002 9.9250939,3.9681725 7.1300249,4.720672 4.9289556,6.840524 4.0458184,9.6305085 3.7047253,10.708081 3.6499091,12.692966 3.9289942,13.860695 c 0.3739152,1.564508 1.0062863,2.712687 2.1419375,3.889059 1.1202846,1.160453 2.4180568,1.915777 3.9683793,2.309658 1.087344,0.276254 3.300147,0.222919 4.330181,-0.10437 z"
     id="path789"
     inkscape:connector-curvature="0" />
  <path
     style="fill:#ff0000;stroke-width:0.10169491"
     d="M 10.037288,21.455438 C 8.0747309,21.004748 6.3558823,20.021803 4.9801393,18.563443 3.8245604,17.338469 3.2193402,16.259006 2.7142705,14.522074 2.0577039,12.264143 2.3959268,9.4132829 3.5696819,7.3118644 4.7662117,5.1696715 7.0767495,3.3675319 9.5288135,2.6639476 10.227774,2.463391 10.571571,2.4308754 11.969491,2.433113 c 1.21679,0.00195 1.78938,0.046803 2.270552,0.1778703 3.377959,0.9201282 5.835546,3.2066526 6.93914,6.4561356 0.309217,0.9104736 0.339852,1.1152261 0.379135,2.5340181 0.083,2.997579 -0.62336,4.906344 -2.564323,6.929475 -1.406587,1.466131 -2.578622,2.209179 -4.300268,2.726288 -0.762654,0.229069 -1.1249,0.273586 -2.469998,0.303548 -1.091028,0.0243 -1.764108,-0.008 -2.186441,-0.10501 z m 3.435693,-1.281262 c 2.380773,-0.344249 4.810297,-2.1774 5.997798,-4.525523 0.538954,-1.065707 0.704238,-1.753581 0.759824,-3.162186 C 20.313506,10.385533 19.95458,8.9779831 18.944565,7.4431978 18.476614,6.7321138 17.398137,5.6100965 16.743317,5.1530805 16.217434,4.7860516 15.056341,4.2419948 14.311288,4.013497 13.383012,3.7288065 11.686447,3.6296803 10.629289,3.7983663 7.4854816,4.3000097 4.6322852,6.9242906 3.9345994,9.9559322 c -0.9135078,3.9694498 0.9370537,7.8376908 4.577265,9.5678888 0.5033898,0.239262 1.2355932,0.503093 1.6271186,0.586293 0.83176,0.176748 2.352581,0.205971 3.333998,0.06406 z"
     id="path817"
     inkscape:connector-curvature="0" />
</svg>
