<?xml version="1.0" encoding="UTF-8" standalone="no"?>
<svg
   xmlns:dc="http://purl.org/dc/elements/1.1/"
   xmlns:cc="http://creativecommons.org/ns#"
   xmlns:rdf="http://www.w3.org/1999/02/22-rdf-syntax-ns#"
   xmlns:svg="http://www.w3.org/2000/svg"
   xmlns="http://www.w3.org/2000/svg"
   xmlns:sodipodi="http://sodipodi.sourceforge.net/DTD/sodipodi-0.dtd"
   xmlns:inkscape="http://www.inkscape.org/namespaces/inkscape"
   width="24"
   height="24"
   viewBox="0 0 24 24"
   version="1.1"
   id="svg739"
   sodipodi:docname="btn-radio-active.svg"
   inkscape:version="0.92.3 (2405546, 2018-03-11)">
  <metadata
     id="metadata743">
    <rdf:RDF>
      <cc:Work
         rdf:about="">
        <dc:format>image/svg+xml</dc:format>
        <dc:type
           rdf:resource="http://purl.org/dc/dcmitype/StillImage" />
        <dc:title />
      </cc:Work>
    </rdf:RDF>
  </metadata>
  <sodipodi:namedview
     pagecolor="#ffffff"
     bordercolor="#666666"
     borderopacity="1"
     objecttolerance="10"
     gridtolerance="10"
     guidetolerance="10"
     inkscape:pageopacity="0"
     inkscape:pageshadow="2"
     inkscape:window-width="1853"
     inkscape:window-height="1143"
     id="namedview741"
     showgrid="false"
     inkscape:zoom="9.8333333"
     inkscape:cx="-3.9661017"
     inkscape:cy="12"
     inkscape:window-x="67"
     inkscape:window-y="27"
     inkscape:window-maximized="0"
     inkscape:current-layer="svg739" />
  <defs
     id="defs735">
    <style
       type="text/css"
       id="style733">
            .cls-1{fill:#5c4b7d;fill-rule:evenodd}
        </style>
  </defs>
  <g
     id="radiobttom_active"
     transform="translate(-508 -240)">
    <path
       id="radio_on"
       d="M14 8a6 6 0 1 0 6 6 5.942 5.942 0 0 0-6-6zm0-6a12 12 0 1 0 12 12A12.035 12.035 0 0 0 14 2zm0 21.6a9.6 9.6 0 1 1 9.6-9.6 9.628 9.628 0 0 1-9.6 9.6z"
       class="cls-1"
       transform="translate(506 238)" />
  </g>
  <path
     style="fill:#88aa00;fill-opacity:1;stroke-width:0.10169491"
     d="M 10.596724,17.776887 C 9.5185635,17.516011 8.7247131,17.052078 7.8363174,16.163683 6.6233376,14.950703 6.0640233,13.633486 6.0640233,11.989831 c 0,-4.3710221 4.6293857,-7.2365658 8.5997717,-5.3231741 0.969345,0.4671428 2.202405,1.700203 2.669548,2.669548 1.153144,2.3928321 0.640259,5.1796931 -1.2859,6.9871871 -1.448507,1.359269 -3.537703,1.916376 -5.450719,1.453495 z"
     id="path745"
     inkscape:connector-curvature="0" />
  <path
     style="fill:#88aa00;fill-opacity:1;stroke-width:0.10169491"
     d="M 9.9762712,23.776527 C 7.5028773,23.338116 5.3486829,22.214217 3.5672328,20.432767 -2.274881,14.590654 -0.56643537,4.7412038 6.901672,1.2092164 c 4.586923,-2.16935183 9.898469,-1.23446005 13.511021,2.378091 1.627312,1.6273131 2.659426,3.4561842 3.214627,5.6962133 0.347543,1.4022113 0.388548,3.7238283 0.09001,5.0961403 -1.070913,4.922728 -4.841362,8.543589 -9.796317,9.407661 -1.070069,0.186604 -2.858684,0.18171 -3.9447408,-0.01079 z m 3.6677638,-2.283406 c 1.339024,-0.23717 2.818477,-0.862485 3.965654,-1.676147 0.780417,-0.553529 2.127849,-1.979914 2.569686,-2.720258 1.903078,-3.188801 1.923759,-6.877617 0.05657,-10.0899363 C 19.675175,6.04203 18.01925,4.3455715 17.125916,3.820625 16.157272,3.2514245 14.948155,2.7784704 13.912076,2.5635104 12.544946,2.2798658 10.672356,2.3475126 9.3882876,2.7269312 5.8205522,3.7811317 3.2252335,6.632929 2.5317857,10.261017 c -0.1956448,1.023605 -0.1293624,3.156004 0.1280219,4.118644 0.9405139,3.517604 3.7228894,6.230705 7.1938009,7.014695 0.9565155,0.216051 2.8497335,0.265382 3.7904265,0.09877 z"
     id="path747"
     inkscape:connector-curvature="0" />
  <path
     style="fill:#ff0000;stroke-width:0.10169491"
     d="M 10.324083,23.784947 C 7.0159504,23.303205 4.0524771,21.442974 2.1613189,18.661017 0.11460276,15.650229 -0.4230018,11.839597 0.70403241,8.33152 1.8694838,4.7038642 4.7121048,1.8726685 8.3898305,0.67661359 15.459245,-1.6224728 22.997457,3.3032008 23.804209,10.748791 c 0.250529,2.312158 -0.118196,4.413244 -1.142397,6.509645 -1.152539,2.359095 -2.982878,4.176924 -5.403146,5.366222 -2.222859,1.092292 -4.632677,1.495501 -6.934583,1.160289 z m 4.043759,-2.423297 c 0.940594,-0.240675 2.253146,-0.838276 3.091319,-1.407468 0.332465,-0.225773 1.050977,-0.880078 1.596693,-1.454012 0.863901,-0.908571 1.063325,-1.189207 1.542138,-2.170147 C 21.363654,14.76142 21.600511,13.740378 21.602457,12 21.603698,10.893122 21.558411,10.449783 21.368744,9.7118644 21.074966,8.5688952 20.392646,7.1007163 19.79809,6.3322201 19.167286,5.5168709 17.856942,4.2691162 17.172676,3.8322112 16.479928,3.3898899 15.155283,2.8360428 14.186441,2.5836371 13.134083,2.3094738 10.716745,2.332075 9.6321577,2.6262178 5.6177784,3.7149279 2.7301704,7.1325325 2.3994403,11.186441 c -0.081651,1.000838 0.092067,2.761673 0.3580999,3.629758 0.696145,2.271568 2.4890135,4.482441 4.5858884,5.65508 0.9113479,0.509655 2.3822084,0.984523 3.3726024,1.088845 1.168963,0.123134 2.725546,0.03853 3.651811,-0.198474 z"
     id="path819"
     inkscape:connector-curvature="0" />
  <path
     style="fill:#ff0000;stroke-width:0.10169491"
     d="M 10.484733,17.690032 C 9.616655,17.462705 9.0220473,17.143595 8.2465457,16.488855 6.4704035,14.989296 5.7376024,12.744258 6.3028625,10.534113 6.5674977,9.4993987 6.9317185,8.8453396 7.6934652,8.0369009 9.5240259,6.0941344 12.23322,5.5795975 14.639658,6.7176627 c 0.764181,0.3614005 2.182376,1.7153318 2.545326,2.4299879 1.227553,2.4170764 0.825162,5.1027934 -1.044584,6.9719824 -1.51763,1.517178 -3.62472,2.10225 -5.655667,1.570399 z"
     id="path821"
     inkscape:connector-curvature="0" />
</svg>
