<?xml version="1.0" encoding="UTF-8" standalone="no"?>
<svg
   xmlns:dc="http://purl.org/dc/elements/1.1/"
   xmlns:cc="http://creativecommons.org/ns#"
   xmlns:rdf="http://www.w3.org/1999/02/22-rdf-syntax-ns#"
   xmlns:svg="http://www.w3.org/2000/svg"
   xmlns="http://www.w3.org/2000/svg"
   xmlns:sodipodi="http://sodipodi.sourceforge.net/DTD/sodipodi-0.dtd"
   xmlns:inkscape="http://www.inkscape.org/namespaces/inkscape"
   id="ic_error_sync"
   width="24"
   height="24"
   viewBox="0 0 24 24"
   shape-rendering="geometricPrecision"
   version="1.1"
   sodipodi:docname="ic-check-sync-off.svg"
   inkscape:version="0.92.3 (2405546, 2018-03-11)">
  <metadata
     id="metadata19">
    <rdf:RDF>
      <cc:Work
         rdf:about="">
        <dc:format>image/svg+xml</dc:format>
        <dc:type
           rdf:resource="http://purl.org/dc/dcmitype/StillImage" />
      </cc:Work>
    </rdf:RDF>
  </metadata>
  <sodipodi:namedview
     pagecolor="#ffffff"
     bordercolor="#666666"
     borderopacity="1"
     objecttolerance="10"
     gridtolerance="10"
     guidetolerance="10"
     inkscape:pageopacity="0"
     inkscape:pageshadow="2"
     inkscape:window-width="1848"
     inkscape:window-height="1061"
     id="namedview17"
     showgrid="false"
     inkscape:zoom="9.8333333"
     inkscape:cx="-20.033898"
     inkscape:cy="12"
     inkscape:window-x="67"
     inkscape:window-y="27"
     inkscape:window-maximized="0"
     inkscape:current-layer="ic_error_sync" />
  <defs
     id="defs4">
    <style
       type="text/css"
       id="style2">
            .cls-1{fill:#7c7687}.cls-2{fill:none}
        </style>
  </defs>
  <g
     id="Group_8889"
     data-name="Group 8889">
    <g
       id="Group_8887"
       data-name="Group 8887">
      <path
         id="Path_18905"
         d="M19.611 16.782A8.933 8.933 0 0 0 21 12h-2a6.95 6.95 0 0 1-.844 3.328z"
         class="cls-1"
         data-name="Path 18905" />
      <path
         id="Path_18906"
         d="M15.328 18.156A6.993 6.993 0 0 1 6.257 16H9v-2H3v6h2v-2.372a8.942 8.942 0 0 0 11.782 1.983z"
         class="cls-1"
         data-name="Path 18906" />
    </g>
    <g
       id="Group_8888"
       data-name="Group 8888">
      <path
         id="Path_18907"
         d="M8.672 5.844A7 7 0 0 1 17.745 8H15v2h6V4h-2v2.37A8.944 8.944 0 0 0 7.218 4.389z"
         class="cls-1"
         data-name="Path 18907" />
      <path
         id="Path_18908"
         d="M4.389 7.218A8.933 8.933 0 0 0 3 12h2a6.95 6.95 0 0 1 .844-3.328z"
         class="cls-1"
         data-name="Path 18908" />
    </g>
  </g>
  <g
     id="Group_8890"
     data-name="Group 8890">
    <path
       id="Rectangle_4442"
       d="M0 0h2v22.627H0z"
       class="cls-1"
       data-name="Rectangle 4442"
       transform="rotate(-45 7.328 -1.622)" />
  </g>
  <path
     id="Rectangle_4443"
     d="M0 0h24v24H0z"
     class="cls-2"
     data-name="Rectangle 4443" />
  <path
     style="fill:#668000;stroke-width:0.10169491"
     d="m 11.311962,12.644167 -7.9587382,-7.9592227 0.6637247,-0.657825 0.6637246,-0.657825 7.9804559,7.9799707 7.980456,7.979971 -0.631414,0.637077 c -0.347277,0.350392 -0.655727,0.637077 -0.685442,0.637077 -0.02972,0 -3.63546,-3.58165 -8.012767,-7.959223 z"
     id="path826"
     inkscape:connector-curvature="0" />
  <path
     style="fill:#668000;stroke-width:0.10169491"
     d="m 15.050847,8.9621919 v -0.963232 l 1.398306,-0.028294 1.398305,-0.028294 -0.81356,-0.8135593 C 15.754953,5.8498678 14.534006,5.246356 12.779987,5.0261117 11.667021,4.8863618 10.427252,5.0529515 9.3554582,5.4862713 L 8.6949153,5.7533247 7.9938922,5.0527287 7.2928691,4.3521326 8.1464345,3.9392722 c 2.3502905,-1.1368101 5.2042845,-1.1653086 7.5629895,-0.07552 1.009614,0.4664704 1.583001,0.8706179 2.51939,1.7757732 l 0.788135,0.761847 V 5.2142455 4.0271186 h 0.966102 0.966102 V 6.9762712 9.9254237 H 18 15.050847 Z"
     id="path828"
     inkscape:connector-curvature="0" />
  <path
     style="fill:#668000;stroke-width:0.10169491"
     d="M 3.0923382,11.19187 C 3.1814108,10.20892 3.56304,8.8945634 4.0267048,7.9738481 L 4.3910248,7.2504053 5.1034786,7.9628591 5.8159323,8.6753128 5.5966161,9.1052081 C 5.3117768,9.6635393 4.9830508,10.956205 4.9830508,11.517962 v 0.44136 H 4.0029222 3.0227936 Z"
     id="path830"
     inkscape:connector-curvature="0" />
  <path
     style="fill:#668000;stroke-width:0.10169491"
     d="M 10.118644,20.758048 C 8.522581,20.406861 7.0487849,19.600841 5.7716518,18.380676 l -0.788601,-0.753425 v 1.182985 1.182984 H 4.0169492 3.0508475 v -3 -3 H 6 8.9491525 v 0.966102 0.966102 H 7.5726932 6.1962338 l 0.1223378,0.22859 c 0.067286,0.125725 0.3806517,0.486904 0.6963687,0.802621 2.0450072,2.045007 5.0743187,2.624306 7.8049057,1.492541 l 0.541455,-0.224421 0.658332,0.652482 c 0.362084,0.358864 0.658333,0.679322 0.658333,0.712128 0,0.07797 -1.203256,0.675721 -1.755482,0.872078 -1.256847,0.446901 -3.49323,0.584982 -4.80384,0.296605 z"
     id="path832"
     inkscape:connector-curvature="0" />
  <path
     style="fill:#668000;stroke-width:0.10169491"
     d="m 18.894755,15.945873 -0.666189,-0.681466 0.24575,-0.528113 c 0.273561,-0.587878 0.538164,-1.710109 0.540867,-2.293921 l 0.0018,-0.381356 h 0.980129 0.980128 l -0.06803,0.750711 c -0.03742,0.412891 -0.160612,1.084813 -0.273771,1.493159 -0.216492,0.781237 -0.812307,2.16043 -0.977386,2.262455 -0.05339,0.033 -0.396863,-0.246663 -0.763267,-0.621469 z"
     id="path834"
     inkscape:connector-curvature="0" />
  <path
     style="fill:#ff0000;stroke-width:0.10169491"
     d="M 10.677966,20.815209 C 8.9329043,20.567606 7.4034477,19.78756 5.7203389,18.286743 L 4.9830508,17.629308 v 1.181956 1.181956 H 4.0169491 3.0508474 v -3 -3 H 6 8.9491525 v 0.966102 0.966102 H 7.5762711 c -0.7672346,0 -1.3728813,0.04125 -1.3728813,0.0935 0,0.194677 1.0885245,1.273503 1.7625739,1.746869 1.9071005,1.339305 4.3412953,1.631146 6.6135583,0.792916 l 0.827258,-0.305172 0.584745,0.62949 c 0.321611,0.34622 0.584746,0.661416 0.584746,0.700436 0,0.160507 -1.839182,0.929692 -2.546605,1.065045 -0.973871,0.186332 -2.632087,0.268806 -3.3517,0.166702 z"
     id="path827"
     inkscape:connector-curvature="0" />
  <path
     style="fill:#ff0000;stroke-width:0.10169491"
     d="m 3.0508474,11.864986 c 0,-0.05189 0.048974,-0.446443 0.1088301,-0.876796 C 3.2977862,9.9952254 3.5769033,9.0709226 4.0424512,8.064864 L 4.4092979,7.2721009 5.0920888,7.9496597 5.7748797,8.6272185 5.5452711,9.1492025 C 5.2357302,9.852902 4.9830508,10.90168 4.9830508,11.482768 v 0.476554 H 4.0169491 c -0.5313559,0 -0.9661017,-0.04245 -0.9661017,-0.09434 z"
     id="path829"
     inkscape:connector-curvature="0" />
  <path
     style="fill:#ff0000;stroke-width:0.10169491"
     d="M 11.362697,12.662688 C 7.0149085,8.351234 3.4576271,4.7688693 3.4576271,4.7018774 c 0,-0.066992 0.275241,-0.3941725 0.6116467,-0.727068 L 4.6809205,3.3695449 12.611647,11.299782 c 4.361899,4.361631 7.930726,7.982959 7.930726,8.047396 0,0.120241 -1.07934,1.154517 -1.20482,1.154517 -0.03838,0 -3.627068,-3.527554 -7.974856,-7.839007 z"
     id="path831"
     inkscape:connector-curvature="0" />
  <path
     style="fill:#ff0000;stroke-width:0.10169491"
     d="M 15.050847,8.9593221 V 7.9932204 h 1.372882 c 0.756723,0 1.372881,-0.041525 1.372881,-0.092523 0,-0.050887 -0.398778,-0.4656227 -0.886174,-0.9216339 C 15.857997,5.9943926 14.645685,5.344218 13.402592,5.0977724 12.027729,4.8252029 11.047509,4.9059403 9.4819051,5.4207062 L 8.6417763,5.6969381 7.9808313,5.041868 7.3198862,4.3867979 7.9775124,4.0552644 C 10.032122,3.0194603 12.681654,2.8328543 14.852145,3.5710858 c 1.174059,0.3993233 2.051264,0.9289165 3.134037,1.8921056 l 1.030767,0.9169268 V 5.2036184 4.0271187 h 0.966102 0.966102 V 6.9762712 9.9254238 H 18 15.050847 Z"
     id="path833"
     inkscape:connector-curvature="0" />
  <path
     style="fill:#ff0000;stroke-width:0.10169491"
     d="M 18.93688,15.896397 18.303365,15.2572 18.618344,14.396397 c 0.190893,-0.521692 0.337233,-1.151257 0.37147,-1.598092 l 0.05649,-0.737288 h 0.951423 c 0.523283,0 0.951424,0.04245 0.951424,0.09434 0,0.383277 -0.254765,1.779434 -0.425773,2.333307 -0.239544,0.775859 -0.790583,2.046933 -0.887391,2.046933 -0.03608,0 -0.350675,-0.287638 -0.699109,-0.639196 z"
     id="path835"
     inkscape:connector-curvature="0" />
  <path
     style="fill:#000000;stroke-width:0.10169491"
     d="M 16.285402,17.477238 C 8.5845857,9.85579 4.088694,5.3665159 3.809214,5.0194141 L 3.5027731,4.6388281 4.0902028,4.0229694 4.6776327,3.4071106 10.460594,9.1832163 c 3.180628,3.1768577 6.748497,6.7735537 7.928598,7.9926577 l 2.145637,2.216552 -0.536601,0.503787 C 19.703098,20.173296 19.411446,20.4 19.350114,20.4 c -0.06133,0 -1.440453,-1.315243 -3.064712,-2.922762 z"
     id="path836"
     inkscape:connector-curvature="0" />
  <path
     style="fill:#000000;stroke-width:0.10169491"
     d="M 15.111864,8.9593221 V 7.9932204 h 1.322034 c 1.010417,0 1.322034,-0.030864 1.322034,-0.1309416 0,-0.1566661 -0.755294,-0.8983605 -1.510976,-1.4837702 C 15.532253,5.8263933 14.417415,5.2962094 13.532783,5.0886785 12.4443,4.8333253 10.861151,4.9328464 9.620339,5.3346257 L 8.6542373,5.6474525 8.0181593,5.017709 7.3820813,4.3879655 7.763922,4.19159 c 1.4371656,-0.7391149 2.851908,-1.0249749 4.715092,-0.9527219 2.352389,0.091224 3.703128,0.6819526 5.794157,2.5340007 0.36838,0.3262782 0.700159,0.5932329 0.737288,0.5932329 0.03713,0 0.06751,-0.5262712 0.06751,-1.1694915 V 4.0271187 h 0.915254 0.915255 v 2.9491525 2.9491526 h -2.898306 -2.898305 z"
     id="path838"
     inkscape:connector-curvature="0" />
  <path
     style="fill:#000000;stroke-width:0.10169491"
     d="m 18.951115,15.849691 -0.579691,-0.585803 0.292869,-0.914995 c 0.161078,-0.503247 0.326032,-1.22997 0.366564,-1.614941 l 0.0737,-0.699946 0.857188,0.05348 c 0.471453,0.02941 0.885237,0.08153 0.91952,0.115811 0.226175,0.226175 -0.921695,4.09273 -1.246367,4.198341 -0.05725,0.01862 -0.364949,-0.229753 -0.683779,-0.551945 z"
     id="path840"
     inkscape:connector-curvature="0" />
  <path
     style="fill:#000000;stroke-width:0.10169491"
     d="M 9.8745763,20.608327 C 8.4664012,20.237912 7.3143392,19.586335 5.8357262,18.324055 c -0.4315371,-0.3684 -0.8090794,-0.669818 -0.838983,-0.669818 -0.029904,0 -0.05437,0.526272 -0.05437,1.169492 V 19.99322 H 4.0271187 3.1118644 v -3 -3 h 2.8983051 2.8983051 v 0.966102 0.966102 H 7.5355932 c -0.9776704,0 -1.3728813,0.03413 -1.3728813,0.118563 0,0.215276 1.5791769,1.653888 2.2448756,2.045056 1.8474085,1.085545 4.0316585,1.254561 6.2236655,0.481583 l 0.790575,-0.278784 0.548659,0.621364 c 0.394293,0.446543 0.51984,0.656089 0.446229,0.744786 -0.05634,0.06788 -0.572271,0.307119 -1.14652,0.531639 -1.607343,0.62844 -3.916923,0.807662 -5.3956197,0.418696 z"
     id="path842"
     inkscape:connector-curvature="0" />
  <path
     style="fill:#000000;stroke-width:0.10169491"
     d="M 3.3807813,11.885446 C 3.0904051,11.842048 3.0903833,11.841987 3.1623007,11.26638 3.2737801,10.374128 3.5822046,9.2743682 3.9908748,8.3119034 4.1959192,7.8290006 4.3807326,7.4135792 4.4015713,7.3887447 4.4224099,7.3639102 4.7307654,7.6323074 5.0868056,7.9851828 L 5.7341514,8.6267745 5.5383115,9.069503 C 5.2584752,9.7021195 4.9423729,11.00085 4.9423729,11.517962 v 0.44136 l -0.6355932,-0.01524 c -0.3495763,-0.0084 -0.7662756,-0.03477 -0.9259984,-0.05864 z"
     id="path844"
     inkscape:connector-curvature="0" />
</svg>
