<?xml version="1.0" encoding="UTF-8" standalone="no"?>
<svg
   xmlns:dc="http://purl.org/dc/elements/1.1/"
   xmlns:cc="http://creativecommons.org/ns#"
   xmlns:rdf="http://www.w3.org/1999/02/22-rdf-syntax-ns#"
   xmlns:svg="http://www.w3.org/2000/svg"
   xmlns="http://www.w3.org/2000/svg"
   xmlns:sodipodi="http://sodipodi.sourceforge.net/DTD/sodipodi-0.dtd"
   xmlns:inkscape="http://www.inkscape.org/namespaces/inkscape"
   id="ic_staking_off"
   width="24"
   height="24"
   viewBox="0 0 24 24"
   shape-rendering="geometricPrecision"
   version="1.1"
   sodipodi:docname="ic-check-staking-off.svg"
   inkscape:version="0.92.3 (2405546, 2018-03-11)">
  <metadata
     id="metadata11">
    <rdf:RDF>
      <cc:Work
         rdf:about="">
        <dc:format>image/svg+xml</dc:format>
        <dc:type
           rdf:resource="http://purl.org/dc/dcmitype/StillImage" />
      </cc:Work>
    </rdf:RDF>
  </metadata>
  <sodipodi:namedview
     pagecolor="#ffffff"
     bordercolor="#666666"
     borderopacity="1"
     objecttolerance="10"
     gridtolerance="10"
     guidetolerance="10"
     inkscape:pageopacity="0"
     inkscape:pageshadow="2"
     inkscape:window-width="1843"
     inkscape:window-height="1051"
     id="namedview9"
     showgrid="false"
     inkscape:zoom="9.8333333"
     inkscape:cx="-20.033898"
     inkscape:cy="12"
     inkscape:window-x="67"
     inkscape:window-y="27"
     inkscape:window-maximized="0"
     inkscape:current-layer="ic_staking_off" />
  <defs
     id="defs4">
    <style
       type="text/css"
       id="style2">
            .cls-1{fill:#7c7687}.cls-2{fill:none}
        </style>
  </defs>
  <path
     id="Path_18914"
     d="M18 6V4.854a3 3 0 0 0-5.964-.3L12 4.586l-.033-.033A3 3 0 0 0 6 5v1H2v6h2v10h16V12h2V6zm-4-.586V5a1 1 0 0 1 2 0v1h-2.586zM13 8v8h-2V8zM8 5a1 1 0 0 1 2 0v.414l.586.586H8zM4 8h5v2H4zm14 12H6v-8h3v6h6v-6h3zm2-10h-5V8h5z"
     class="cls-1"
     data-name="Path 18914" />
  <path
     id="Rectangle_4527"
     d="M0 0h24v24H0z"
     class="cls-2"
     data-name="Rectangle 4527" />
  <path
     style="fill:#668000;stroke-width:0.10169491"
     d="M 4.0677966,16.942373 V 11.959322 H 3.0508475 2.0338983 V 9.0101695 6.0610169 H 4.0018442 5.9697901 L 6.0312486,5.1901424 C 6.1341321,3.7322703 6.6928018,2.8336521 7.8159485,2.3194585 8.8852604,1.8299113 10.237522,2.076896 11.075411,2.9147853 11.430637,3.2700107 11.89555,4.1436876 11.897312,4.459322 11.897858,4.557203 11.944072,4.6372881 12,4.6372881 c 0.05593,0 0.102142,-0.080085 0.102688,-0.1779661 0.0018,-0.3156344 0.466675,-1.1893113 0.821901,-1.5445367 0.83789,-0.8378893 2.19015,-1.084874 3.259462,-0.5953268 1.125489,0.5152657 1.701222,1.4430902 1.791289,2.8867583 l 0.05333,0.8548001 h 1.968717 1.968716 v 2.9491526 2.9491525 h -1.016949 -1.01695 v 4.983051 4.983051 H 12 4.0677966 Z M 18,15.976271 v -4.016949 h -1.525424 -1.525423 v 3 3 H 12 9.0508475 v -3 -3 H 7.5254237 6 v 4.016949 4.016949 h 6 6 z M 13.016949,12.010169 V 7.9932203 H 12 10.983051 v 4.0169487 4.01695 H 12 13.016949 Z M 9.0508475,9.0101695 V 7.9932203 H 6.5084746 3.9661017 v 1.0169492 1.0169495 h 2.5423729 2.5423729 z m 10.9830505,0 V 7.9932203 h -2.542373 -2.542372 v 1.0169492 1.0169495 h 2.542372 2.542373 z M 10.576271,5.9770489 c 0,-0.046182 -0.114407,-0.1914477 -0.254237,-0.3228116 -0.156863,-0.1473648 -0.254237,-0.3508379 -0.254237,-0.5312516 0,-0.7668364 -0.7015928,-1.3174124 -1.3894731,-1.0903914 -0.5100631,0.168336 -0.7452707,0.6076366 -0.7457404,1.3928294 l -3.801e-4,0.6355932 h 1.3220339 c 0.7271186,0 1.3220337,-0.037786 1.3220337,-0.083968 z m 5.491526,-0.5312516 c 0,-0.766951 -0.204048,-1.183451 -0.676492,-1.380851 -0.696899,-0.2911828 -1.457764,0.250061 -1.458721,1.0376658 -2.45e-4,0.2017984 -0.09059,0.3975297 -0.254618,0.5516252 -0.13983,0.1313639 -0.254237,0.2766292 -0.254237,0.3228116 0,0.046182 0.594915,0.083968 1.322034,0.083968 h 1.322034 z"
     id="path818"
     inkscape:connector-curvature="0" />
  <path
     style="fill:#ff0000;stroke-width:0.10169491"
     d="M 4.0677966,16.942373 V 11.959322 H 3.0508474 2.0338983 V 9.0101695 6.061017 H 4.0005737 5.9672491 L 6.0821434,5.1278621 C 6.2183529,4.0215895 6.5533591,3.2574204 7.0996843,2.8067905 8.7045366,1.4830475 11.063928,2.1536313 11.767061,4.1333475 11.865502,4.4105148 11.970324,4.6372882 12,4.6372882 c 0.02968,0 0.134499,-0.2267734 0.232939,-0.5039407 0.536334,-1.5100821 2.071585,-2.3289536 3.55688,-1.8971667 1.274445,0.3704913 1.927684,1.2560629 2.127489,2.8841582 l 0.115443,0.940678 h 1.966676 1.966675 v 2.9491525 2.9491525 h -1.016949 -1.01695 v 4.983051 4.983051 H 12 4.0677966 Z M 18,15.976271 v -4.016949 h -1.525424 -1.525423 v 3 3 H 12 9.0508474 v -3 -3 H 7.5254237 6 v 4.016949 4.016949 h 6 6 z M 13.016949,12.01017 V 7.9932204 H 12 10.983051 V 12.01017 16.027119 H 12 13.016949 Z M 9.0508474,9.0101695 V 7.9932204 H 6.5084745 3.9661017 v 1.0169491 1.0169495 h 2.5423728 2.5423729 z m 10.9830506,0 V 7.9932204 h -2.542373 -2.542372 v 1.0169491 1.0169495 h 2.542372 2.542373 z M 10.576271,6.0146857 c 0,-0.025482 -0.114407,-0.2149191 -0.254237,-0.4209709 C 10.182203,5.387663 10.067797,5.0930128 10.067797,4.9389364 10.067797,4.5990833 9.6000229,4.0667327 9.2169032,3.9705758 8.8404214,3.876085 8.3523597,4.1020694 8.1239459,4.4766416 7.9910377,4.6945958 7.932848,4.9831023 7.9325835,5.4254238 L 7.9322033,6.061017 h 1.3220339 c 0.7271187,0 1.3220338,-0.020849 1.3220338,-0.046331 z M 16.067416,5.4254238 C 16.067111,4.9831023 16.008962,4.6945958 15.876054,4.4766416 15.648395,4.1033061 15.159437,3.8761204 14.785554,3.9699592 14.378266,4.0721819 13.932203,4.568974 13.932203,4.920359 c 0,0.164294 -0.114406,0.467304 -0.254237,0.6733558 -0.13983,0.2060518 -0.254237,0.3954887 -0.254237,0.4209709 0,0.025482 0.594915,0.046331 1.322034,0.046331 h 1.322034 L 16.06739,5.4254238 Z"
     id="path815"
     inkscape:connector-curvature="0" />
  <path
     style="fill:#000000;stroke-width:0.10169491"
     d="M 4.1288136,16.942373 V 11.959322 H 3.1118644 2.0949153 V 9.0101695 6.061017 H 4.0574157 6.0199162 L 6.1340816,5.1565448 C 6.3956434,3.084329 7.4686156,2.0776753 9.2623207,2.2216567 c 1.0954063,0.087929 1.9426543,0.7352271 2.4429053,1.8663821 0.133597,0.3020871 0.267848,0.5492494 0.298335,0.5492494 0.03049,0 0.185819,-0.286017 0.345182,-0.6355932 0.559985,-1.2283748 1.586449,-1.8730786 2.839058,-1.7831632 1.571924,0.1128364 2.405816,1.0303146 2.683657,2.9526547 l 0.128609,0.8898305 h 1.962678 1.962679 v 2.9491525 2.9491525 h -1.016949 -1.01695 v 4.983051 4.983051 H 12.010169 4.1288136 Z M 18.061017,15.976271 v -4.016949 h -1.576271 -1.576271 v 3 3 H 12.010169 9.1118644 v -3 -3 H 7.5355932 5.959322 v 4.016949 4.016949 h 6.050847 6.050848 z M 13.077966,12.01017 V 7.9932204 h -1.067797 -1.067796 v 4.0169496 4.016949 h 1.067796 1.067797 z M 9.1118644,9.0101695 V 7.9932204 H 6.5186441 3.9254237 v 1.0169491 1.0169495 h 2.5932204 2.5932203 z m 10.9830506,0 V 7.9932204 h -2.59322 -2.59322 v 1.0169491 1.0169495 h 2.59322 2.59322 z M 10.387338,5.6198789 C 10.245149,5.377253 10.128814,5.0744116 10.128814,4.9468978 c 0,-0.3304961 -0.7176363,-1.021474 -1.0608831,-1.021474 -0.7428558,0 -1.1764055,0.5797114 -1.1764055,1.5730048 V 6.061017 h 1.3771682 1.3771684 z m 5.741476,-0.070603 c 0,-0.9411884 -0.492896,-1.6238523 -1.172451,-1.6238523 -0.447566,0 -0.910617,0.4442189 -1.0665,1.0231256 -0.06658,0.2472723 -0.207856,0.5714768 -0.313937,0.7204543 -0.106082,0.1489776 -0.192875,0.2981259 -0.192875,0.3314407 0,0.033315 0.617796,0.060573 1.372881,0.060573 h 1.372882 z"
     id="path819"
     inkscape:connector-curvature="0" />
</svg>
