<?xml version="1.0" encoding="UTF-8" standalone="no"?>
<!-- Generator: Adobe Illustrator 23.1.1, SVG Export Plug-In . SVG Version: 6.00 Build 0)  -->

<svg
   xmlns:dc="http://purl.org/dc/elements/1.1/"
   xmlns:cc="http://creativecommons.org/ns#"
   xmlns:rdf="http://www.w3.org/1999/02/22-rdf-syntax-ns#"
   xmlns:svg="http://www.w3.org/2000/svg"
   xmlns="http://www.w3.org/2000/svg"
   xmlns:sodipodi="http://sodipodi.sourceforge.net/DTD/sodipodi-0.dtd"
   xmlns:inkscape="http://www.inkscape.org/namespaces/inkscape"
   version="1.1"
   id="ic-transaction-staked"
   x="0px"
   y="0px"
   viewBox="0 0 24 24"
   style="enable-background:new 0 0 24 24;"
   xml:space="preserve"
   sodipodi:docname="ic-check-cold-staking-off.svg"
   inkscape:version="0.92.3 (2405546, 2018-03-11)"><metadata
   id="metadata13"><rdf:RDF><cc:Work
       rdf:about=""><dc:format>image/svg+xml</dc:format><dc:type
         rdf:resource="http://purl.org/dc/dcmitype/StillImage" /></cc:Work></rdf:RDF></metadata><defs
   id="defs11" /><sodipodi:namedview
   pagecolor="#ffffff"
   bordercolor="#666666"
   borderopacity="1"
   objecttolerance="10"
   gridtolerance="10"
   guidetolerance="10"
   inkscape:pageopacity="0"
   inkscape:pageshadow="2"
   inkscape:window-width="1852"
   inkscape:window-height="937"
   id="namedview9"
   showgrid="false"
   inkscape:zoom="9.8333333"
   inkscape:cx="-17.542373"
   inkscape:cy="12"
   inkscape:window-x="67"
   inkscape:window-y="27"
   inkscape:window-maximized="0"
   inkscape:current-layer="ic-transaction-staked" />
<style
   type="text/css"
   id="style2">
	.st0{fill:#7c7687;}
	.st1{fill:none;}
</style>
<path
   id="Path_18914"
   class="st0"
   d="M42.1,6V4.9C42,3.2,40.6,1.9,38.9,2c-1.4,0.1-2.6,1.1-2.8,2.6l0,0l0,0  c-0.2-1.6-1.8-2.8-3.4-2.5c-1.5,0.2-2.6,1.5-2.6,3v1h-4v6h2v10h16V12h2V6H42.1z M38.1,5.4V5c0-0.6,0.4-1,1-1c0.6,0,1,0.4,1,1v1h-2.6  L38.1,5.4z M37.1,8v8h-2V8H37.1z M32.1,5c0-0.6,0.4-1,1-1c0.6,0,1,0.4,1,1v0.4L34.7,6h-2.6V5z M28.1,8h5v2h-5V8z M42.1,20h-12v-8h3  v6h6v-6h3V20z M44.1,10h-5V8h5V10z" />
<path
   id="Rectangle_4527"
   class="st1"
   d="M0,0h24v24H0V0z" />
<path
   class="st0"
   d="M21.4,16.3l-2.8-1.5l2.5-0.6c0.5-0.1,0.7-0.6,0.6-1c-0.1-0.4-0.6-0.7-1-0.6l-4.2,1.1l-2.7-1.5l2.7-1.5l4.2,1.1  c0.1,0,0.1,0,0.2,0c0.4,0,0.7-0.2,0.8-0.6c0.1-0.4-0.1-0.9-0.6-1l-2.5-0.6l2.8-1.5c0.4-0.2,0.5-0.7,0.3-1.1  c-0.2-0.4-0.8-0.5-1.2-0.3L17.8,8l0.7-2.4c0.1-0.4-0.1-0.9-0.6-1c-0.5-0.1-0.9,0.1-1,0.6l-1.1,4l-2.7,1.5v-3L16,4.8  c0.3-0.3,0.3-0.8,0-1.2c-0.3-0.3-0.9-0.3-1.2,0l-1.8,1.8V2.3c0-0.5-0.4-0.8-0.9-0.8c-0.5,0-0.9,0.4-0.9,0.8v3.1L9.4,3.6  C9,3.3,8.5,3.3,8.2,3.6c-0.3,0.3-0.3,0.8,0,1.2l3.1,2.9v3L8.5,9.2l-1.1-4c-0.1-0.4-0.6-0.7-1-0.6c-0.5,0.1-0.7,0.6-0.6,1L6.4,8  L3.6,6.5C3.2,6.3,2.7,6.4,2.4,6.8C2.2,7.2,2.3,7.7,2.7,7.9l2.8,1.5L3,10.1c-0.5,0.1-0.7,0.6-0.6,1c0.1,0.4,0.4,0.6,0.8,0.6  c0.1,0,0.1,0,0.2,0l4.2-1.1l2.7,1.5l-2.7,1.5l-4.2-1.1c-0.5-0.1-0.9,0.1-1,0.6c-0.1,0.4,0.1,0.9,0.6,1l2.5,0.6l-2.8,1.5  c-0.4,0.2-0.5,0.7-0.3,1.1c0.2,0.3,0.4,0.4,0.7,0.4c0.1,0,0.3,0,0.4-0.1l2.8-1.5l-0.7,2.4c-0.1,0.4,0.1,0.9,0.6,1c0.1,0,0.1,0,0.2,0  c0.4,0,0.7-0.2,0.8-0.6l1.1-4l2.7-1.5v3l-3.1,2.9c-0.3,0.3-0.3,0.8,0,1.2c0.3,0.3,0.9,0.3,1.2,0l1.8-1.8v3.1c0,0.5,0.4,0.8,0.9,0.8  c0.5,0,0.9-0.4,0.9-0.8v-3.1l1.8,1.8c0.2,0.2,0.4,0.2,0.6,0.2c0.2,0,0.4-0.1,0.6-0.2c0.3-0.3,0.3-0.8,0-1.2l-3.1-2.9v-3l2.7,1.5  l1.1,4c0.1,0.4,0.4,0.6,0.8,0.6c0.1,0,0.1,0,0.2,0c0.5-0.1,0.7-0.6,0.6-1l-0.7-2.4l2.8,1.5c0.1,0.1,0.3,0.1,0.4,0.1  c0.3,0,0.6-0.1,0.7-0.4C22,17,21.8,16.5,21.4,16.3z"
   id="path6" />
<path
   style="fill:#445500;stroke-width:0.10169491"
   d="m 11.230664,22.345161 -0.267952,-0.21077 v -1.721433 c 0,-0.946788 -0.03528,-1.721433 -0.07839,-1.721433 -0.04312,0 -0.489301,0.415706 -0.991525,0.92379 -0.5022237,0.508084 -1.0143878,0.963927 -1.1381425,1.012985 -0.538394,0.213426 -1.1556016,-0.368307 -1.0092853,-0.951278 0.033047,-0.131669 0.7909463,-0.917735 1.6894861,-1.752274 l 1.6295537,-1.513484 v -1.503938 c 0,-0.827165 -0.03432,-1.503801 -0.07627,-1.503636 -0.04195,2.03e-4 -0.671169,0.331945 -1.3982667,0.737288 L 8.2678741,14.877966 7.696439,16.911864 c -0.3142894,1.118644 -0.6043705,2.11177 -0.6446247,2.206946 -0.040254,0.09518 -0.2310521,0.225146 -0.4239954,0.288824 -0.2903983,0.09584 -0.3947003,0.08701 -0.6057158,-0.05125 C 5.5613173,19.054466 5.5502765,18.815667 5.9364291,17.503366 6.130855,16.842629 6.2773235,16.252626 6.2619145,16.19225 6.2465055,16.13187 5.570339,16.439659 4.759322,16.876217 3.9483051,17.312776 3.1919622,17.670999 3.07856,17.672267 2.5414247,17.678267 2.1540453,16.973314 2.4488881,16.526374 2.5304091,16.402799 3.2429407,15.958473 4.0322917,15.538981 4.8216426,15.11949 5.4683102,14.745885 5.4693308,14.708749 5.4703508,14.671609 4.8531943,14.496019 4.0978704,14.31854 3.0385619,14.069635 2.6897752,13.946199 2.5724467,13.778689 2.2921582,13.37852 2.4216409,12.806835 2.8437282,12.580941 c 0.1756434,-0.094 0.63918,-0.0076 2.5146185,0.468496 l 2.2992804,0.58374 1.3413155,-0.750486 C 9.7366661,12.469922 10.3087,12.100751 10.270129,12.062311 10.231558,12.02387 9.6178086,11.667713 8.9062414,11.270851 L 7.6124826,10.549283 5.4747789,11.11193 c -1.175737,0.309455 -2.2316427,0.562646 -2.346457,0.562646 -0.3072187,0 -0.7079829,-0.447876 -0.7079829,-0.79121 0,-0.470752 0.3470412,-0.685568 1.7096292,-1.0582489 C 4.8185694,9.636778 5.3802159,9.4381465 5.3780716,9.383714 5.3759273,9.3292815 4.7694311,8.9585656 4.0303024,8.559901 2.2790427,7.6153223 2.017121,7.2888883 2.5682589,6.7377503 2.9718128,6.3341964 3.3079173,6.4085089 4.9228351,7.2583452 5.7278181,7.6819605 6.3864407,7.9821892 6.3864407,7.92552 6.3864407,7.8688508 6.2512471,7.2688462 6.0860103,6.5921765 5.9207737,5.9155068 5.8133228,5.2834984 5.8472306,5.1877136 5.9679558,4.846682 6.216272,4.6576271 6.5434784,4.6576271 c 0.618309,0 0.7197174,0.1861132 1.3470121,2.4721508 L 8.4711864,9.2459965 9.920339,10.008778 11.369492,10.77156 11.371816,9.2654412 11.37414,7.759322 9.6920279,6.1322034 C 8.2295059,4.7174957 8.0101537,4.4642529 8.0117376,4.1923031 c 0.00242,-0.4149339 0.3676055,-0.755015 0.8107568,-0.755015 0.2903968,0 0.4771866,0.1365525 1.3215276,0.9661017 0.540831,0.531356 1.01493,0.9661017 1.053552,0.9661017 0.03862,0 0.07022,-0.7352119 0.07022,-1.6338041 0,-0.8985924 0.04541,-1.7186563 0.100914,-1.8223643 0.158013,-0.2952495 0.747614,-0.4513296 1.088136,-0.2880531 0.469582,0.2251591 0.536629,0.5002783 0.538264,2.2087346 l 0.0015,1.5662079 1.011445,-0.9814622 c 0.893485,-0.867 1.053596,-0.9814622 1.372881,-0.9814622 0.481077,0 0.768217,0.2918205 0.768217,0.7807392 0,0.3459175 -0.114592,0.4894148 -1.528173,1.9136527 l -1.528173,1.5396933 0.02817,1.5299377 0.02817,1.529938 1.309322,-0.7331844 c 0.720127,-0.4032512 1.342985,-0.7973585 1.384129,-0.8757939 0.04114,-0.078435 0.314885,-1.0349826 0.608313,-2.1256605 0.293427,-1.090678 0.604357,-2.0631356 0.690953,-2.161017 0.252811,-0.2857541 0.87897,-0.2361323 1.135495,0.089986 0.115924,0.1473734 0.210771,0.3377416 0.210771,0.4230404 0,0.085299 -0.162155,0.7025661 -0.360343,1.3717053 -0.198189,0.6691392 -0.342491,1.2344689 -0.320672,1.2562881 0.02182,0.021819 0.668467,-0.2583993 1.436996,-0.6227079 1.508075,-0.714879 1.95049,-0.8033651 2.294866,-0.4589895 0.254459,0.2544588 0.263143,0.7538068 0.01738,0.9995673 -0.102304,0.1023044 -0.818609,0.5198828 -1.591787,0.9279521 -0.942395,0.4973782 -1.358763,0.7670345 -1.263144,0.8180612 0.07845,0.041864 0.684908,0.2008822 1.347688,0.353373 1.381755,0.3179108 1.620189,0.4757828 1.571926,1.0408048 -0.02227,0.260723 -0.113246,0.426453 -0.31744,0.578283 l -0.286222,0.212824 -2.267564,-0.583363 -2.267565,-0.583363 -1.334445,0.736574 c -0.733946,0.405116 -1.335165,0.766289 -1.336044,0.802605 -0.002,0.08376 2.579849,1.510241 2.733478,1.510241 0.06282,0 1.07344,-0.253583 2.245829,-0.563517 2.00988,-0.531335 2.148509,-0.554781 2.427438,-0.410541 0.322976,0.167017 0.422165,0.342187 0.422165,0.745554 0,0.463441 -0.256193,0.607069 -1.700018,0.953068 -1.601725,0.383838 -1.6329,0.263698 0.342911,1.321497 0.738481,0.395363 1.36738,0.78318 1.397555,0.861814 0.08041,0.209543 -0.03165,0.431559 -0.25334,0.501921 -0.106758,0.03388 -0.240373,0.148062 -0.296926,0.253731 -0.05655,0.10567 -0.25543,0.220756 -0.441949,0.255747 -0.291717,0.05473 -0.550526,-0.05057 -1.85134,-0.753217 -0.831718,-0.44926 -1.527151,-0.801901 -1.545405,-0.783647 -0.01826,0.01825 0.128963,0.580668 0.327152,1.249808 0.415135,1.401611 0.428552,1.549151 0.169907,1.868563 -0.238178,0.294137 -0.863131,0.308395 -1.133783,0.02587 -0.101409,-0.105859 -0.408467,-1.029943 -0.704397,-2.119869 -0.288541,-1.062712 -0.545443,-2.003787 -0.570893,-2.09128 -0.03837,-0.131904 -2.548381,-1.620584 -2.732411,-1.620584 -0.03185,0 -0.05791,0.680363 -0.05791,1.511918 v 1.511919 l 1.627118,1.549282 c 1.550449,1.476282 1.627119,1.567692 1.627119,1.939943 0,0.469581 -0.271863,0.707277 -0.808945,0.707277 -0.315578,0 -0.471937,-0.114598 -1.350253,-0.989618 l -0.993345,-0.989617 v 1.658457 1.658457 l -0.297262,0.297262 c -0.357528,0.357528 -0.779187,0.38887 -1.163599,0.08649 z"
   id="path820"
   inkscape:connector-curvature="0" /><path
   style="fill:#445500;stroke-width:0.10169491"
   d="m 28.149153,17.064407 v -4.983051 h -1.01695 -1.016949 V 9.1343532 6.1873505 l 2.008475,-0.027574 2.008474,-0.027573 0.05274,-0.9661017 c 0.04472,-0.8192825 0.0981,-1.048517 0.35125,-1.5084121 0.527145,-0.9576719 1.316125,-1.4457555 2.457556,-1.5203104 0.61872,-0.040413 0.806486,-0.010397 1.271187,0.2032117 0.29988,0.1378458 0.687744,0.3711834 0.861921,0.5185281 0.287119,0.2428894 0.746833,1.0267551 0.905669,1.5442708 0.04874,0.1587956 0.101479,0.088169 0.240552,-0.3221232 0.713189,-2.1040427 3.323936,-2.7215435 4.889097,-1.156382 0.590755,0.5907545 0.828474,1.1938185 0.893479,2.2666408 l 0.05392,0.8898305 h 1.968946 1.968945 v 2.9491526 2.9491524 h -1.01695 -1.016949 v 5.033898 5.033899 h -7.93221 -7.932203 z M 42.183051,15.99661 V 11.979661 H 40.60678 39.030508 v 3 3 h -2.949152 -2.949153 v -3 -3 H 31.60678 30.081356 v 4.016949 4.016949 h 6.050847 6.050848 z M 37.098305,11.979661 V 7.9118644 h -1.016949 -1.016949 v 4.0677966 4.067797 h 1.016949 1.016949 z M 33.132203,8.9778844 V 7.9083113 l -2.516949,0.0272 -2.516949,0.0272 -0.02898,1.0423728 -0.02898,1.0423729 h 2.545931 2.54593 z m 10.983051,0 V 7.9083113 l -2.516949,0.0272 -2.516949,0.0272 -0.02898,1.0423728 -0.02898,1.0423729 h 2.545931 2.54593 z M 34.657627,5.9973879 c 0,-0.046182 -0.114407,-0.1914477 -0.254237,-0.3228116 -0.173798,-0.1632746 -0.254237,-0.347448 -0.254237,-0.5820991 0,-0.7495399 -0.552775,-1.2373515 -1.253228,-1.1059458 -0.533017,0.099995 -0.789019,0.4487682 -0.853802,1.1632087 -0.08689,0.9582727 -0.125268,0.9316158 1.341126,0.9316158 0.700908,0 1.274378,-0.037786 1.274378,-0.083968 z m 5.491526,-0.5820991 c 0,-0.7902017 -0.176557,-1.188223 -0.605983,-1.3660971 -0.702235,-0.2908753 -1.384738,0.1323633 -1.489729,0.9238216 -0.04263,0.3213906 -0.146326,0.5627182 -0.3064,0.7130996 -0.133076,0.1250188 -0.241956,0.2650926 -0.241956,0.311275 0,0.046182 0.594915,0.083968 1.322034,0.083968 h 1.322034 z"
   id="path822"
   inkscape:connector-curvature="0" /><path
   style="fill:#668000;stroke-width:0.10169491"
   d="m 11.36707,22.365559 -0.353511,-0.189477 -0.02782,-1.742279 c -0.0153,-0.958252 -0.06453,-1.742278 -0.109392,-1.742278 -0.04486,0 -0.192509,0.120208 -0.328107,0.267127 -0.6442945,0.698093 -1.8406081,1.665077 -2.0599672,1.665077 -0.3186547,0 -0.6780983,-0.404492 -0.6780983,-0.763082 0,-0.298236 0.4306882,-0.765539 2.5169495,-2.73093 l 0.737288,-0.694572 v -1.515878 c 0,-1.008418 -0.03641,-1.515877 -0.108758,-1.515877 -0.05982,0 -0.696233,0.326684 -1.4142579,0.725963 L 8.2358916,14.855318 7.6501418,16.94292 C 7.3011884,18.186585 6.9890241,19.105892 6.8779587,19.216957 6.6131979,19.481717 6.1634971,19.453086 5.8821008,19.153557 5.6124946,18.866574 5.6183962,18.79798 6.0465013,17.242722 6.1965607,16.697574 6.2885508,16.220757 6.250924,16.183131 6.213297,16.145501 5.4718262,16.473514 4.6032105,16.912041 l -1.579301,0.797323 -0.2763616,-0.20546 C 2.552205,17.358672 2.4619783,17.190354 2.4397768,16.929752 2.4102648,16.583338 2.4409833,16.540458 2.9482514,16.219979 3.2451877,16.032382 3.934322,15.634211 4.479661,15.335153 5.025,15.036095 5.4711864,14.758696 5.4711864,14.718711 c 0,-0.03999 -0.3775424,-0.17196 -0.8389831,-0.293276 -2.0883938,-0.549055 -2.1440677,-0.578342 -2.1440677,-1.127846 0,-0.362921 0.2900626,-0.707758 0.595336,-0.707758 0.1236566,0 1.2078261,0.243753 2.4092656,0.541673 l 2.1844353,0.541673 0.8037866,-0.451315 c 1.1482571,-0.644731 1.7698879,-1.046948 1.7698879,-1.145178 0,-0.04684 -0.5834742,-0.415972 -1.2966098,-0.820293 L 7.6576271,10.521263 5.3733664,11.095496 C 3.2545379,11.628142 3.0719249,11.658472 2.8518781,11.514292 2.7214029,11.428801 2.568666,11.237906 2.5124628,11.090081 2.3311671,10.613237 2.6451912,10.349594 3.8536036,9.964108 5.1579125,9.5480314 5.3694915,9.4636649 5.3694915,9.3596522 5.3694915,9.3145542 4.7667164,8.934212 4.0299913,8.5144473 3.2932662,8.0946826 2.5978903,7.62721 2.4847115,7.4756194 L 2.278932,7.2 2.4869206,6.920339 C 2.8609866,6.4173708 3.2772141,6.4808615 4.9372881,7.294114 5.734322,7.6845723 6.3864406,7.9497972 6.3864406,7.8835024 6.3864406,7.8172077 6.2647633,7.2077411 6.1160466,6.529132 5.9673299,5.8505231 5.8733449,5.2231321 5.9071912,5.1349302 5.9410376,5.0467282 6.0852628,4.8982076 6.2276919,4.8048845 6.5488895,4.5944278 6.9369076,4.6753604 7.1474792,4.9967333 c 0.084393,0.1288001 0.4035633,1.113514 0.7092671,2.1882532 0.305704,1.0747391 0.5807972,1.9944765 0.6113184,2.0438608 0.053761,0.086987 2.7396543,1.5304747 2.8477493,1.5304747 0.02952,0 0.05368,-0.681255 0.05368,-1.5138998 V 7.7315223 L 9.834789,6.2199985 C 8.9907027,5.3886603 8.2326395,4.5791401 8.1502043,4.4210647 8.0165547,4.1647821 8.0181356,4.1064678 8.1648015,3.8826273 8.3856378,3.5455885 8.775719,3.4030712 9.0625906,3.5546175 c 0.1221854,0.064547 0.6393209,0.4992994 1.1491904,0.9661162 0.509869,0.4668169 0.949033,0.8487579 0.975921,0.8487579 0.02689,0 0.07605,-0.7661743 0.109251,-1.7026096 0.05624,-1.5863577 0.07544,-1.7148141 0.281108,-1.8813559 0.557379,-0.4513381 1.305939,-0.02531 1.330643,0.757309 0.0076,0.2402543 0.0419,0.9757286 0.07627,1.6343873 l 0.06248,1.1975614 0.981701,-0.9079294 c 0.539936,-0.4993611 1.071603,-0.936463 1.181484,-0.9713376 0.493284,-0.1565625 1.035548,0.3910778 0.878183,0.8868907 -0.03603,0.1135149 -0.723635,0.9028098 -1.528013,1.7539886 l -1.462508,1.5475978 v 1.537664 c 0,0.8457151 0.02141,1.5376641 0.04759,1.5376641 0.02617,0 0.632529,-0.335798 1.347458,-0.746218 l 1.29987,-0.7462175 0.270536,-0.8554771 c 0.148796,-0.4705125 0.436384,-1.4275111 0.639087,-2.1266636 0.481247,-1.6599042 0.836856,-1.9810312 1.480732,-1.3371556 0.327272,0.3272722 0.334413,0.2316013 -0.14792,1.9815322 -0.151643,0.5501698 -0.253901,1.0221226 -0.22724,1.0487839 0.02666,0.026661 0.606265,-0.2067494 1.288009,-0.5186906 1.806491,-0.826585 2.323688,-0.8901957 2.543216,-0.312793 0.18076,0.4754368 -0.019,0.7086897 -1.137062,1.3277147 -1.452596,0.8042407 -1.848058,1.0688507 -1.746153,1.168379 0.0482,0.047079 0.564194,0.2059075 1.146647,0.3529531 1.465402,0.3699545 1.635911,0.4691935 1.635911,0.9521275 0,0.276844 -0.06949,0.451726 -0.245033,0.616637 l -0.245033,0.230197 -2.25299,-0.576789 c -1.239145,-0.317234 -2.330151,-0.547795 -2.424459,-0.512359 -0.485022,0.182247 -2.559921,1.431054 -2.529472,1.522399 0.04976,0.149272 2.520892,1.480793 2.748164,1.480793 0.102921,0 1.066983,-0.228814 2.142358,-0.508475 1.075376,-0.279661 2.050161,-0.508475 2.166191,-0.508475 0.288143,0 0.618049,0.298621 0.696526,0.630476 0.09809,0.414784 -0.272894,0.721508 -1.126788,0.931619 -1.329481,0.327137 -1.790676,0.48139 -1.755428,0.58713 0.01937,0.05811 0.674577,0.462806 1.456015,0.899326 0.812022,0.453603 1.435465,0.866796 1.455031,0.964336 0.0491,0.24476 -0.68087,0.85902 -1.027031,0.864236 -0.154512,0.0023 -0.9668,-0.339274 -1.805085,-0.759115 -0.838283,-0.419841 -1.524152,-0.725235 -1.524152,-0.678654 0,0.04658 0.137288,0.573621 0.305084,1.171199 0.372172,1.325422 0.388485,1.726278 0.07907,1.943003 -0.296682,0.207804 -0.618142,0.200551 -0.87129,-0.01966 -0.223185,-0.194144 -0.43538,-0.802234 -0.983532,-2.818519 -0.19715,-0.725184 -0.438851,-1.397282 -0.537112,-1.493549 -0.247211,-0.242194 -2.379663,-1.509966 -2.539834,-1.509966 -0.100201,0 -0.13035,0.35231 -0.13035,1.523242 v 1.523244 l 1.573996,1.553027 c 0.94217,0.929621 1.59783,1.657665 1.633376,1.813697 0.08935,0.392231 -0.240739,0.746112 -0.695954,0.746112 -0.315726,0 -0.493711,-0.121311 -1.385983,-0.944653 l -1.02374,-0.944654 v 1.617153 1.617153 l -0.279661,0.261838 c -0.394931,0.369763 -0.636179,0.415023 -1.044794,0.19601 z"
   id="path817"
   inkscape:connector-curvature="0" /><path
   style="fill:#668000;stroke-width:0.10169491"
   d="m 28.149153,17.064407 v -4.983051 h -1.01695 -1.016949 V 9.1322034 6.1830509 h 2.01867 2.018671 l 0.06566,-0.9250824 c 0.129651,-1.8265287 0.949061,-2.8125216 2.515364,-3.026727 0.773891,-0.1058361 1.265594,-0.019792 1.852538,0.3241799 0.55669,0.3262426 0.906259,0.7284889 1.211708,1.3943044 0.127297,0.2774813 0.259938,0.5045115 0.294757,0.5045115 0.03482,0 0.154863,-0.2203058 0.266764,-0.4895684 0.448924,-1.0802334 1.346199,-1.745565 2.461735,-1.8253811 0.988093,-0.070698 1.630781,0.1637609 2.309574,0.8425535 0.596181,0.5961814 0.786549,1.0939683 0.90338,2.3622265 l 0.06792,0.7372882 h 1.97273 1.97273 v 2.9491525 2.9491525 h -1.01695 -1.016949 v 5.033898 5.033899 h -7.9322 -7.932203 z M 42.183051,15.99661 V 11.979661 H 40.60678 39.030508 v 3 3 h -2.949152 -2.949153 v -3 -3 H 31.60678 30.081356 v 4.016949 4.016949 h 6.050847 6.050848 z M 37.098305,11.979661 V 7.9118644 h -1.016949 -1.016949 v 4.0677966 4.067797 h 1.016949 1.016949 z M 33.132203,8.9796611 V 7.9118644 H 30.58983 28.047458 v 1.0677967 1.0677969 h 2.542372 2.542373 z m 10.983051,0 V 7.9118644 h -2.542373 -2.542373 v 1.0677967 1.0677969 h 2.542373 2.542373 z M 34.657627,6.0251132 c 0,-0.030933 -0.114407,-0.2246075 -0.254237,-0.4303865 -0.139831,-0.2057792 -0.254237,-0.4757743 -0.254237,-0.5999891 0,-0.9118265 -1.058666,-1.3722917 -1.745051,-0.7590071 -0.283415,0.2532319 -0.330233,0.3688119 -0.369546,0.9123104 -0.0698,0.9649664 -0.115538,0.9333151 1.348693,0.9333151 0.700908,0 1.274378,-0.025309 1.274378,-0.056243 z m 5.491526,-0.6098243 c 0,-0.7139098 -0.175214,-1.1894752 -0.502842,-1.3648166 -0.288628,-0.1544688 -0.843399,-0.1272866 -1.102231,0.054006 -0.258777,0.1812547 -0.530521,0.6582714 -0.530521,0.9312714 0,0.1016582 -0.114406,0.3531977 -0.254237,0.5589769 -0.139831,0.205779 -0.254237,0.399453 -0.254237,0.4303865 0,0.030934 0.594915,0.056243 1.322034,0.056243 h 1.322034 z"
   id="path819"
   inkscape:connector-curvature="0" /><path
   style="fill:#ff0000;stroke-width:0.10169491"
   d="m 11.306712,22.33614 c -0.257022,-0.124539 -0.344,-0.736988 -0.344,-2.422244 0,-0.597728 -0.02907,-1.115844 -0.06459,-1.15137 -0.03553,-0.03553 -0.390187,0.236991 -0.788135,0.605592 C 9.712038,19.73672 9.1874516,20.175319 8.9442389,20.342782 8.5665378,20.602848 8.46611,20.630894 8.2557564,20.535051 7.9733055,20.406357 7.7759185,19.976605 7.8671847,19.689051 7.9013907,19.581279 8.634759,18.799395 9.4968932,17.951531 L 11.064407,16.40996 v -1.446436 c 0,-0.818337 -0.04256,-1.47274 -0.09801,-1.507009 -0.05391,-0.03332 -0.692182,0.26435 -1.418392,0.661479 l -1.3203819,0.722053 -0.1612587,0.578281 c -0.4112722,1.474844 -0.9154656,3.150879 -1.037093,3.447495 -0.2447461,0.596871 -0.8765465,0.692845 -1.2100743,0.183817 -0.1528841,-0.233331 -0.1426439,-0.328455 0.164446,-1.527568 0.1801155,-0.703308 0.3013915,-1.304834 0.2695021,-1.336723 -0.031889,-0.03189 -0.7730151,0.288663 -1.646946,0.71234 -1.7056669,0.826897 -1.8265557,0.844041 -2.0769283,0.294532 -0.2508687,-0.550597 -0.147323,-0.656409 1.6237846,-1.659332 0.7249721,-0.410531 1.3181309,-0.777823 1.3181309,-0.816208 0,-0.03838 -0.5377118,-0.217945 -1.1949152,-0.399023 -1.6059987,-0.442499 -1.7542373,-0.524275 -1.7542373,-0.967727 0,-0.358207 0.2830919,-0.760838 0.5338983,-0.759343 0.069915,4.07e-4 1.1338983,0.246338 2.3644068,0.546491 l 2.2372881,0.545733 0.661017,-0.360014 c 0.9302706,-0.506661 1.9322029,-1.144638 1.9322029,-1.230325 0,-0.0716 -1.1023197,-0.75356 -2.0847453,-1.28975 L 7.6576271,10.525207 5.5140982,11.049044 c -1.1789409,0.288111 -2.2429239,0.523837 -2.3644067,0.523837 -0.5525114,0 -0.8621641,-0.881309 -0.398844,-1.135158 C 2.8766949,10.368773 3.4984998,10.126741 4.1326362,9.8998757 4.7667724,9.6730103 5.2891613,9.4417974 5.2935002,9.3860694 5.2978391,9.3303414 4.7452965,8.9415255 4.0656277,8.5220339 3.3859588,8.1025424 2.7100867,7.6391207 2.5636896,7.4922081 2.3042868,7.2318916 2.3019815,7.2182745 2.4730995,6.9571154 2.8221599,6.4243818 3.1489775,6.4767776 5.0960351,7.3776281 5.7566511,7.6832771 6.3205176,7.9099909 6.3490719,7.8814367 6.3908731,7.8396355 6.2166326,6.8213006 5.9306415,5.4359541 5.8717375,5.1506212 5.9751238,4.9702813 6.2913539,4.8067524 6.4958187,4.7010195 6.6504195,4.6856972 6.828736,4.7534929 7.1269097,4.8668583 7.2762423,5.2388494 7.9627384,7.5783195 8.327808,8.8224192 8.5006874,9.2631528 8.6661456,9.3715651 8.989916,9.5837077 11.22252,10.759322 11.301629,10.759322 c 0.03732,0 0.06786,-0.669481 0.06786,-1.487735 V 7.7838518 L 9.7423729,6.1166052 C 8.0183841,4.3500993 7.9031253,4.1578917 8.3186441,3.7423729 8.7068657,3.3541513 9.0031786,3.4714796 10.11784,4.4547844 c 0.570067,0.5028872 1.056157,0.8801008 1.0802,0.8382525 0.02404,-0.041848 0.07613,-0.7798065 0.115753,-1.6399072 0.03962,-0.8601007 0.09453,-1.6224362 0.122023,-1.694079 0.08949,-0.2332162 0.625739,-0.3939399 0.898981,-0.2694427 0.456385,0.2079433 0.538253,0.4853674 0.627991,2.1280936 l 0.08467,1.5499049 1.016949,-0.9085539 c 0.559322,-0.4997047 1.09317,-0.9287318 1.18633,-0.9533934 0.243909,-0.064569 0.620434,0.1502881 0.762405,0.4350537 0.179395,0.3598303 0.04093,0.5630417 -1.527921,2.242338 l -1.377593,1.4745763 -0.0047,1.5508474 c -0.0026,0.8529664 0.01846,1.5508474 0.04672,1.5508474 0.09252,0 2.596279,-1.4489558 2.647796,-1.5323126 0.02762,-0.044684 0.319272,-0.959458 0.648123,-2.0328306 0.769244,-2.5108173 1.030612,-2.869701 1.661179,-2.2809581 0.348105,0.325017 0.346258,0.447283 -0.02765,1.8291522 -0.166475,0.6152543 -0.302722,1.1509361 -0.302771,1.1904042 -1.02e-4,0.090617 0.50198,-0.092678 1.725493,-0.6299127 0.529579,-0.2325338 1.176975,-0.4481463 1.438659,-0.4791388 0.415691,-0.049232 0.490749,-0.028393 0.594245,0.1649915 0.06515,0.1217376 0.104196,0.3449256 0.08676,0.4959731 -0.03363,0.2914459 -0.372382,0.5422302 -2.065592,1.5292155 -0.447457,0.2608265 -0.813559,0.518971 -0.813559,0.5736544 0,0.054684 0.549152,0.2527415 1.220339,0.4401289 0.671186,0.187387 1.300424,0.412874 1.398305,0.501082 0.246265,0.221929 0.222543,0.67586 -0.052,0.995036 l -0.229965,0.267351 -1.829357,-0.460816 c -3.048249,-0.767856 -2.702119,-0.740728 -3.558337,-0.27889 -0.407479,0.219791 -1.005915,0.569167 -1.329859,0.776392 l -0.588989,0.376772 0.227584,0.171667 c 0.125171,0.09442 0.746643,0.443948 1.381047,0.776734 l 1.153465,0.605066 2.244207,-0.554523 2.244208,-0.554524 0.248403,0.233364 c 0.669249,0.628726 0.3261,1.030426 -1.259647,1.474573 -0.775385,0.217176 -1.167708,0.374762 -1.167708,0.46904 0,0.07809 0.572034,0.47939 1.271186,0.89178 1.632483,0.962907 1.633455,0.963869 1.316307,1.303332 -0.136681,0.146299 -0.378493,0.333607 -0.537362,0.416241 -0.341796,0.177782 -0.450652,0.142638 -2.330143,-0.752282 -0.657397,-0.31302 -1.21778,-0.546613 -1.245297,-0.519098 -0.02752,0.02752 0.09304,0.602916 0.267902,1.278664 0.359353,1.388703 0.341236,1.667869 -0.120658,1.859192 -0.274666,0.11377 -0.345142,0.105483 -0.577363,-0.0679 -0.299632,-0.223708 -0.374606,-0.413442 -0.989966,-2.505264 -0.243214,-0.826768 -0.508895,-1.604734 -0.590402,-1.728814 -0.149257,-0.227213 -2.148151,-1.473066 -2.519072,-1.570065 -0.191567,-0.05009 -0.199373,0.0083 -0.199373,1.491647 v 1.543783 l 1.412162,1.395752 c 1.593201,1.574688 1.889961,1.970817 1.7194,2.295133 -0.15144,0.287957 -0.281051,0.360532 -0.647138,0.362358 -0.250062,0.0013 -0.518205,-0.18126 -1.347458,-0.917124 L 12.69148,18.684666 v 1.621506 1.621505 l -0.312887,0.263278 c -0.325889,0.274218 -0.700817,0.324997 -1.071926,0.14518 z"
   id="path823"
   inkscape:connector-curvature="0" /><path
   style="fill:#ff0000;stroke-width:0.10169491"
   d="m 28.149153,17.064407 v -4.983051 h -1.01695 -1.016949 V 9.1322034 6.1830509 h 2.019277 2.019277 l 0.06812,-0.8168343 c 0.164998,-1.9784698 1.005154,-2.9627901 2.660823,-3.1173988 1.267873,-0.1183959 2.214377,0.399662 2.800277,1.5326995 0.191113,0.3695823 0.372267,0.672137 0.402565,0.6723439 0.0303,2.033e-4 0.173706,-0.2414849 0.318686,-0.5370929 0.380466,-0.7757561 0.727827,-1.143169 1.384547,-1.4644719 0.48126,-0.2354589 0.708878,-0.2828399 1.342789,-0.2795151 0.90138,0.00473 1.350391,0.2006997 2.004247,0.8747589 0.545604,0.562462 0.705906,0.9581391 0.853068,2.1056397 l 0.119033,0.9281761 h 1.969747 1.969746 v 2.9491525 2.9491525 h -1.01695 -1.016949 v 5.033898 5.033899 H 36.081356 28.149153 Z M 42.183051,15.99661 V 11.979661 H 40.60678 39.030508 v 3 3 h -2.949152 -2.949153 v -3 -3 H 31.60678 30.081356 v 4.016949 4.016949 h 6.050847 6.050848 z M 37.098305,11.979661 V 7.9118644 h -1.016949 -1.016949 v 4.0677966 4.067797 h 1.016949 1.016949 z M 33.132203,8.9796611 V 7.9118644 h -2.542372 -2.542373 v 1.0677967 1.0677969 h 2.542373 2.542372 z m 10.983051,0 V 7.9118644 h -2.542373 -2.542373 v 1.0677967 1.0677969 h 2.542373 2.542373 z M 34.657627,6.0408889 c 0,-0.022257 -0.113855,-0.2396298 -0.253012,-0.4830508 C 34.265458,5.314417 34.151051,5.032897 34.150377,4.932238 34.146398,4.3376604 33.524273,3.8686527 32.895925,3.9865314 32.352761,4.0884297 32.08465,4.4554885 32.03313,5.1677486 31.9688,6.0570792 32.00644,6.081356 33.44974,6.081356 c 0.664338,0 1.207887,-0.01821 1.207887,-0.040467 z m 5.491526,-0.5729688 c 0,-1.0717624 -0.31629,-1.5221573 -1.068934,-1.5221573 -0.462437,0 -0.901074,0.4047332 -1.057167,0.9754559 -0.05978,0.218584 -0.200783,0.5472603 -0.313332,0.7303918 -0.112549,0.1831315 -0.204635,0.3547417 -0.204635,0.381356 0,0.026614 0.594915,0.04839 1.322034,0.04839 h 1.322034 z"
   id="path825"
   inkscape:connector-curvature="0" /><path
   style="fill:#000000;stroke-width:0.10169491"
   d="m 11.219555,22.190886 c -0.09262,-0.111606 -0.151579,-0.659994 -0.190418,-1.771226 -0.03094,-0.885264 -0.08269,-1.635989 -0.115003,-1.668278 -0.03231,-0.03229 -0.440879,0.264056 -0.907929,0.658545 -1.598642,1.350276 -1.8741681,1.425708 -2.0884936,0.571766 -0.066349,-0.264353 0.047928,-0.405211 1.5799014,-1.947395 l 1.6514232,-1.662431 -0.03919,-1.426873 c -0.02155,-0.784779 -0.07121,-1.458898 -0.110354,-1.498041 -0.06962,-0.06962 -1.2150711,0.475001 -2.2775346,1.082881 -0.4908907,0.280859 -0.5467163,0.351751 -0.6977227,0.88603 -0.6094174,2.156195 -0.9991591,3.360869 -1.1584591,3.580746 -0.2622475,0.361973 -0.760351,0.396751 -0.9756769,0.06812 -0.1519089,-0.231842 -0.1453628,-0.325918 0.095435,-1.371512 0.2554822,-1.109357 0.3122804,-1.544067 0.2017443,-1.544067 -0.031233,0 -0.6604699,0.280269 -1.3983051,0.622821 C 4.0511377,17.114523 3.3216647,17.431651 3.1679216,17.4767 2.8431629,17.57186 2.6215729,17.40585 2.5169541,16.989018 2.4307871,16.6457 2.6190764,16.484659 4.2014734,15.548276 c 0.6759675,-0.400005 1.2290318,-0.767988 1.2290318,-0.817742 0,-0.09156 -0.3864981,-0.231244 -1.6779661,-0.606436 C 3.3610174,14.010355 2.9377123,13.844831 2.8118649,13.756269 2.52537,13.554655 2.5109414,13.112362 2.7813892,12.822071 c 0.2286987,-0.245479 0.00623,-0.278483 2.9795001,0.442019 l 1.9066514,0.462033 0.6865689,-0.381669 C 8.7317225,13.134535 9.3304141,12.780893 9.6845354,12.558582 10.308509,12.166863 10.322641,12.148635 10.142162,11.968346 10.039736,11.866028 9.442592,11.489456 8.8151755,11.13152 l -1.140757,-0.650792 -1.35653,0.332851 c -0.7460916,0.183068 -1.777143,0.424026 -2.2912253,0.535463 L 3.091968,11.551654 2.8319435,11.347118 C 2.6344322,11.191756 2.5793693,11.0665 2.6029088,10.826114 2.6323735,10.525221 2.6839497,10.490729 3.6508479,10.125288 5.0844716,9.5834473 5.3500353,9.452203 5.2711286,9.3245292 5.2334386,9.2635456 4.6246432,8.8371272 3.91825,8.3769329 2.3556807,7.3589653 2.2940714,7.2949265 2.5303554,6.9343115 2.6870437,6.695175 2.75399,6.672563 3.1779781,6.7155689 c 0.2616522,0.02654 0.9747462,0.2757515 1.5964607,0.5579302 1.5837441,0.7188168 1.5713244,0.7160399 1.5713244,0.3513281 0,-0.1654088 -0.091526,-0.7455641 -0.2033899,-1.2892339 C 6.0305089,5.7919234 5.9389835,5.3081601 5.9389835,5.2605637 c 0,-0.1647434 0.4460522,-0.5012416 0.6644313,-0.5012416 0.4222894,0 0.5692272,0.3105233 1.3233392,2.7966101 0.5663498,1.8670897 0.4736512,1.7488577 1.9882893,2.5359568 0.7286977,0.378677 1.3563397,0.657199 1.3947617,0.618939 0.03842,-0.03826 0.08483,-0.7111092 0.103143,-1.4952215 l 0.03329,-1.4256588 -1.3607,-1.3881942 C 9.33715,5.6382467 8.5963308,4.8424133 8.4392701,4.6332348 8.1189059,4.206564 8.1330811,3.8780757 8.4811373,3.6630184 8.7765597,3.4804826 9.1325456,3.6713534 10.261017,4.6173456 l 0.915255,0.7672531 0.07468,-0.4906045 c 0.04107,-0.2698324 0.109718,-1.0617306 0.152542,-1.7597739 0.0776,-1.2649606 0.07879,-1.2694942 0.357522,-1.3670889 0.448061,-0.1568822 0.816307,0.029524 0.967456,0.489727 0.07066,0.2151372 0.157838,1.0034904 0.193732,1.7518959 0.03589,0.7484055 0.08551,1.3607373 0.110263,1.3607373 0.02475,0 0.455252,-0.3546611 0.956666,-0.7881356 1.230599,-1.0638581 1.328088,-1.1192291 1.65888,-0.9421947 0.386959,0.2070941 0.430217,0.5458257 0.127166,0.9957694 -0.14026,0.2082457 -0.808058,0.9735439 -1.483994,1.7006626 l -1.228976,1.3220339 -0.0023,1.5508474 c -0.0017,1.1363614 0.0302,1.5508474 0.119272,1.5508474 0.06686,0 0.686469,-0.330251 1.376908,-0.733891 l 1.255345,-0.7338912 0.568743,-1.783058 c 0.312809,-0.9806819 0.679302,-2.0032579 0.814429,-2.2723912 0.210162,-0.4185798 0.283961,-0.4847487 0.510393,-0.4576271 0.145589,0.017438 0.358115,0.1573685 0.47228,0.3109559 l 0.207572,0.2792499 -0.327682,1.2854991 c -0.180224,0.7070246 -0.307524,1.3056561 -0.282887,1.3302923 0.02464,0.024636 0.684807,-0.2104331 1.467047,-0.5223762 1.487355,-0.5931296 2.17834,-0.7153595 2.296934,-0.4063095 0.196349,0.5116773 0.01417,0.7003409 -1.663927,1.7231179 -0.62088,0.3784183 -1.112333,0.7385681 -1.092117,0.8003329 0.02022,0.061765 0.597358,0.2983425 1.282539,0.5257282 1.508748,0.500696 1.650647,0.653002 1.238342,1.329167 l -0.194435,0.318868 -2.208661,-0.547681 c -1.214766,-0.301225 -2.283286,-0.547681 -2.37449,-0.547681 -0.26118,0 -2.750435,1.391022 -2.754335,1.539152 -0.0025,0.09491 0.395266,0.340103 1.641668,1.01198 l 1.113618,0.6003 2.244576,-0.562854 c 2.169338,-0.543986 2.251365,-0.556751 2.44707,-0.380801 0.239174,0.215032 0.375202,0.536145 0.305123,0.720284 -0.07389,0.194148 -0.67393,0.47295 -1.674775,0.778164 -0.487917,0.148792 -0.915161,0.315903 -0.949433,0.371354 -0.105601,0.170866 0.137509,0.368157 1.390595,1.12851 0.802485,0.486937 1.208672,0.793097 1.208672,0.911025 0,0.226618 -0.610231,0.696445 -0.904572,0.696445 -0.123395,0 -0.811873,-0.269879 -1.52995,-0.59973 -1.663928,-0.764333 -1.73497,-0.786875 -1.73497,-0.550502 0,0.102029 0.116868,0.704305 0.259706,1.33839 0.240179,1.066199 0.24765,1.171285 0.09935,1.397617 -0.179812,0.274428 -0.52413,0.318688 -0.816437,0.104948 -0.121349,-0.08873 -0.434863,-0.877675 -0.85842,-2.160178 L 15.345763,14.98134 14.849664,14.609815 c -0.77136,-0.577666 -1.977809,-1.234946 -2.147347,-1.169888 -0.126822,0.04867 -0.153164,0.316182 -0.153164,1.555425 v 1.496649 l 1.583522,1.603091 c 1.376394,1.393402 1.579249,1.640246 1.550847,1.887146 -0.02193,0.190681 -0.123635,0.327449 -0.309387,0.416062 -0.373347,0.178105 -0.676994,0.01408 -1.763608,-0.952688 -0.466163,-0.414748 -0.872793,-0.754087 -0.903624,-0.754087 -0.03083,0 -0.05606,0.728882 -0.05606,1.619738 v 1.619738 l -0.267952,0.210771 c -0.324861,0.255535 -0.969441,0.282749 -1.163341,0.04911 z"
   id="path821"
   inkscape:connector-curvature="0" /><path
   style="fill:#ffffff;stroke-width:0.10169491"
   d="M 28.159322,17.064407 V 12.081356 H 27.142373 26.125424 V 9.1322034 6.1830509 h 2.020593 2.020594 l 0.12029,-0.9379728 c 0.261512,-2.0391552 1.125923,-2.9244471 2.855472,-2.9244471 1.289658,0 1.992802,0.463986 2.655436,1.7522504 0.107885,0.2097458 0.234612,0.3813559 0.281615,0.3813559 0.047,0 0.229417,-0.2700944 0.405368,-0.6002099 0.550054,-1.0320094 1.287188,-1.537569 2.351686,-1.6128931 0.932676,-0.065997 1.453328,0.1028595 2.056337,0.6669039 0.63955,0.5982236 0.860286,1.0328441 1.000338,1.9696192 0.204083,1.3650543 -0.0886,1.2036986 2.183361,1.2036986 h 1.981113 v 2.9491525 2.9491525 h -1.016949 -1.016949 v 5.033898 5.033899 H 36.091525 28.159322 Z M 42.19322,15.99661 v -4.016949 h -1.576271 -1.576271 v 3 3 h -2.949153 -2.949152 v -3 -3 h -1.525424 -1.525424 v 4.016949 4.016949 h 6.050848 6.050847 z M 37.108475,11.979661 V 7.9118644 h -1.01695 -1.016949 v 4.0677966 4.067797 h 1.016949 1.01695 z M 33.142373,8.9796611 V 7.9118644 H 30.6 28.057627 V 8.9796611 10.047458 H 30.6 33.142373 Z m 10.983051,0 V 7.9118644 h -2.542373 -2.542373 v 1.0677967 1.0677969 h 2.542373 2.542373 z M 34.667797,6.0327615 c 0,-0.026727 -0.111999,-0.2898626 -0.248886,-0.5847458 C 34.282024,5.1531325 34.143507,4.7845974 34.111097,4.629049 34.042427,4.2994778 33.531352,3.9467093 33.121734,3.9461429 c -0.410322,-5.695e-4 -0.790182,0.2078148 -0.95309,0.5228427 -0.176294,0.3409165 -0.191355,1.3218627 -0.02288,1.4903365 0.117519,0.1175191 2.522034,0.1875365 2.522034,0.073439 z m 5.491525,-0.5648414 c 0,-1.0638585 -0.317136,-1.5221573 -1.053308,-1.5221573 -0.507754,0 -0.905281,0.3766737 -1.173305,1.1117556 -0.122386,0.3356537 -0.26638,0.6373868 -0.319987,0.6705179 -0.05361,0.033131 -0.09747,0.1261816 -0.09747,0.206779 0,0.120076 0.238754,0.1465407 1.322034,0.1465407 h 1.322034 z"
   id="path826"
   inkscape:connector-curvature="0" /></svg>