<?xml version="1.0" encoding="UTF-8" standalone="no"?>
<svg
   xmlns:dc="http://purl.org/dc/elements/1.1/"
   xmlns:cc="http://creativecommons.org/ns#"
   xmlns:rdf="http://www.w3.org/1999/02/22-rdf-syntax-ns#"
   xmlns:svg="http://www.w3.org/2000/svg"
   xmlns="http://www.w3.org/2000/svg"
   xmlns:sodipodi="http://sodipodi.sourceforge.net/DTD/sodipodi-0.dtd"
   xmlns:inkscape="http://www.inkscape.org/namespaces/inkscape"
   width="24px"
   height="40px"
   viewBox="0 0 24 40"
   version="1.1"
   id="svg10"
   sodipodi:docname="ic-nav-dashboard.svg"
   inkscape:version="0.92.3 (2405546, 2018-03-11)">
  <metadata
     id="metadata16">
    <rdf:RDF>
      <cc:Work
         rdf:about="">
        <dc:format>image/svg+xml</dc:format>
        <dc:type
           rdf:resource="http://purl.org/dc/dcmitype/StillImage" />
        <dc:title>Dashboard</dc:title>
      </cc:Work>
    </rdf:RDF>
  </metadata>
  <defs
     id="defs14" />
  <sodipodi:namedview
     pagecolor="#ffffff"
     bordercolor="#666666"
     borderopacity="1"
     objecttolerance="10"
     gridtolerance="10"
     guidetolerance="10"
     inkscape:pageopacity="0"
     inkscape:pageshadow="2"
     inkscape:window-width="689"
     inkscape:window-height="480"
     id="namedview12"
     showgrid="false"
     inkscape:zoom="5.9"
     inkscape:cx="12"
     inkscape:cy="20"
     inkscape:window-x="67"
     inkscape:window-y="27"
     inkscape:window-maximized="0"
     inkscape:current-layer="svg10" />
  <!-- Generator: Sketch 52.6 (67491) - http://www.bohemiancoding.com/sketch -->
  <title
     id="title2">Dashboard</title>
  <desc
     id="desc4">Created with Sketch.</desc>
  <g
     id="Dashboard"
     stroke="none"
     stroke-width="1"
     fill="none"
     fill-rule="evenodd">
    <path
       d="M11,19 L1,19 L1,11 L11,11 L11,19 Z M3,17 L9,17 L9,13 L3,13 L3,17 Z"
       id="Path_18866"
       fill="#FFFFFF"
       fill-rule="nonzero" />
    <path
       d="M23,33 L13,33 L13,11 L23,11 L23,33 Z M15,31 L21,31 L21,13 L15,13 L15,31 Z"
       id="Path_18867"
       fill="#FFFFFF"
       fill-rule="nonzero" />
    <path
       d="M11,33 L1,33 L1,21 L11,21 L11,33 Z M3,31 L9,31 L9,23 L3,23 L3,31 Z"
       id="Path_18868"
       fill="#FFFFFF"
       fill-rule="nonzero" />
  </g>
</svg>
