<?xml version="1.0" encoding="UTF-8" standalone="no"?>
<svg
   xmlns:dc="http://purl.org/dc/elements/1.1/"
   xmlns:cc="http://creativecommons.org/ns#"
   xmlns:rdf="http://www.w3.org/1999/02/22-rdf-syntax-ns#"
   xmlns:svg="http://www.w3.org/2000/svg"
   xmlns="http://www.w3.org/2000/svg"
   xmlns:sodipodi="http://sodipodi.sourceforge.net/DTD/sodipodi-0.dtd"
   xmlns:inkscape="http://www.inkscape.org/namespaces/inkscape"
   width="24px"
   height="30px"
   viewBox="0 0 24 30"
   version="1.1"
   id="svg10"
   sodipodi:docname="ic-nav-master-active.svg"
   inkscape:version="0.92.3 (2405546, 2018-03-11)">
  <metadata
     id="metadata16">
    <rdf:RDF>
      <cc:Work
         rdf:about="">
        <dc:format>image/svg+xml</dc:format>
        <dc:type
           rdf:resource="http://purl.org/dc/dcmitype/StillImage" />
      </cc:Work>
    </rdf:RDF>
  </metadata>
  <defs
     id="defs14" />
  <sodipodi:namedview
     pagecolor="#ffffff"
     bordercolor="#666666"
     borderopacity="1"
     objecttolerance="10"
     gridtolerance="10"
     guidetolerance="10"
     inkscape:pageopacity="0"
     inkscape:pageshadow="2"
     inkscape:window-width="1853"
     inkscape:window-height="1060"
     id="namedview12"
     showgrid="false"
     inkscape:zoom="7.8666667"
     inkscape:cx="-27.915254"
     inkscape:cy="15"
     inkscape:window-x="67"
     inkscape:window-y="27"
     inkscape:window-maximized="0"
     inkscape:current-layer="svg10" />
  <!-- Generator: Sketch 52.6 (67491) - http://www.bohemiancoding.com/sketch -->
  <title
     id="title2">Master Active</title>
  <desc
     id="desc4">Created with Sketch.</desc>
  <g
     id="Master-Active"
     stroke="none"
     stroke-width="1"
     fill="none"
     fill-rule="evenodd">
    <g
       id="Group-2"
       transform="translate(1.000000, 7.000000)"
       fill="#B088FF">
      <path
         d="M20.4074761,15.3510563 C20.7959509,14.2693875 20.9932272,13.1283659 20.9904761,11.9790563 C20.9667232,7.59826215 18.1142387,3.73511844 13.9344761,2.42305633 C13.6586172,1.01541681 12.4248914,-1.77635684e-15 10.9904761,-1.77635684e-15 C9.55606085,-1.77635684e-15 8.32233506,1.01541681 8.04647613,2.42305633 C5.43779562,3.22781817 3.27120239,5.06352412 2.04895358,7.50462293 C0.82670477,9.94572175 0.654939474,12.7802304 1.57347613,15.3510563 C0.536977576,15.9091966 -0.0758995445,17.023265 0.00756246666,18.1975238 C0.0910244778,19.3717827 0.855312151,20.3879672 1.9603332,20.7938962 C3.06535425,21.1998251 4.30571331,20.9200466 5.12947613,20.0790563 C8.62508464,22.6157834 13.3558676,22.6157834 16.8514761,20.0790563 C17.6740128,20.9257556 18.9173887,21.2098999 20.0260559,20.8045316 C21.134723,20.3991634 21.9015673,19.380011 21.9839578,18.2024381 C22.0663484,17.0248652 21.4488936,15.9088583 20.4074761,15.3530563 L20.4074761,15.3510563 Z M10.9904761,1.97905633 C11.5427609,1.97905633 11.9904761,2.42677158 11.9904761,2.97905633 C11.9904761,3.53134108 11.5427609,3.97905633 10.9904761,3.97905633 C10.4381914,3.97905633 9.99047613,3.53134108 9.99047613,2.97905633 C9.99047613,2.42677158 10.4381914,1.97905633 10.9904761,1.97905633 Z M2.99047613,18.9790563 C2.43819138,18.9790563 1.99047613,18.5313411 1.99047613,17.9790563 C1.99047613,17.4267716 2.43819138,16.9790563 2.99047613,16.9790563 C3.54276088,16.9790563 3.99047613,17.4267716 3.99047613,17.9790563 C3.99047613,18.5313411 3.54276088,18.9790563 2.99047613,18.9790563 Z M10.9904761,19.9790563 C9.16167556,19.9774289 7.38886578,19.3480144 5.96847613,18.1960563 C5.96847613,18.1230563 5.99047613,18.0530563 5.99047613,17.9790563 C5.98962097,16.5625961 4.99815745,15.3397355 3.61247613,15.0460563 C2.75768623,13.0113046 2.7848975,10.7131993 3.68762691,8.69925797 C4.59035632,6.68531661 6.28777453,5.13586515 8.37547613,4.42005633 C8.89501726,5.37979995 9.89863255,5.97774055 10.9899761,5.97774055 C12.0813197,5.97774055 13.084935,5.37979995 13.6044761,4.42005633 C16.8161933,5.54917859 18.9719561,8.57469133 18.9904761,11.9790563 C18.9894629,13.0326108 18.7779916,14.0753477 18.3684761,15.0460563 C16.9827948,15.3397355 15.9913313,16.5625961 15.9904761,17.9790563 C15.9904761,18.0530563 16.0074761,18.1230563 16.0124761,18.1960563 C14.592167,19.3481579 12.8193047,19.9775911 10.9904761,19.9790563 Z M18.9904761,18.9790563 C18.4381914,18.9790563 17.9904761,18.5313411 17.9904761,17.9790563 C17.9904761,17.4267716 18.4381914,16.9790563 18.9904761,16.9790563 C19.5427609,16.9790563 19.9904761,17.4267716 19.9904761,17.9790563 C19.9904761,18.5313411 19.5427609,18.9790563 18.9904761,18.9790563 Z"
         id="Path_18873"
         fill-rule="nonzero" />
      <polygon
         id="Path_18874"
         points="15.9904761 15.9790563 15.9904761 7.62805633 10.9904761 11.6910563 5.99047613 7.62805633 5.99047613 15.9790563 7.99047613 15.9790563 7.99047613 11.8300563 10.9904761 14.2680563 13.9904761 11.8310563 13.9904761 15.9790563" />
    </g>
  </g>
  <path
     style="fill:#88aa00;stroke-width:0.12711865"
     d="M 9.9661017,28.716624 C 8.8334987,28.461419 7.8045253,28.063892 6.9596203,27.555117 6.2059579,27.101284 5.9667989,27.040571 5.8265652,27.267474 c -0.1748533,0.282918 -1.1489043,0.616827 -1.807343,0.619565 -2.0370341,0.0085 -3.37664146,-1.82932 -2.8130349,-3.859164 0.084345,-0.303772 0.3750551,-0.731394 0.7566286,-1.112967 L 2.5824718,22.295253 2.3336087,21.322208 c -0.3391699,-1.326143 -0.3374071,-3.336387 0.00412,-4.693823 0.1391386,-0.553027 0.5202159,-1.548936 0.8468386,-2.213131 0.5069412,-1.030877 0.7722508,-1.38586 1.8126988,-2.425387 1.023225,-1.022319 1.4096279,-1.313041 2.4076086,-1.81144 0.653823,-0.3265249 1.2694807,-0.5936812 1.3681284,-0.5936812 0.098648,0 0.3134091,-0.3031102 0.4772476,-0.6735783 0.5076637,-1.1479177 1.6020863,-1.8706364 2.8280613,-1.8675528 1.0659,0.00268 2.319699,0.9104478 2.662103,1.9273969 0.07519,0.2233233 0.218704,0.4464304 0.318914,0.4957936 0.10021,0.049363 0.668429,0.3214653 1.262709,0.6046708 2.533373,1.207287 4.544172,3.628815 5.295924,6.377677 0.315421,1.153366 0.315107,3.939043 -5.08e-4,5.070274 l -0.226539,0.8118 0.469279,0.386818 c 1.258015,1.036963 1.412962,2.985508 0.332684,4.183702 -1.068111,1.1847 -2.751982,1.318542 -4.117786,0.3273 -0.179675,-0.130399 -0.300861,-0.107364 -0.699153,0.132894 -0.807816,0.487292 -1.976043,1.003022 -2.774524,1.224853 -1.066536,0.296302 -3.583559,0.366801 -4.6352471,0.12983 z m 3.9736153,-1.96303 c 1.03182,-0.263894 1.741788,-0.584267 2.604775,-1.175402 0.470138,-0.322039 0.540616,-0.431141 0.543045,-0.840655 0.0059,-0.994281 0.940383,-2.229051 1.93552,-2.557476 0.403939,-0.133311 0.467581,-0.221898 0.673112,-0.936952 1.046483,-3.640757 -0.650365,-7.614765 -3.994215,-9.354427 l -1.051942,-0.54728 -0.459861,0.537244 C 13.60687,12.560079 12.900847,12.884247 12,12.884247 c -0.891065,0 -1.581196,-0.313532 -2.1994495,-0.999227 l -0.4833478,-0.536074 -0.9785166,0.48037 c -1.9607417,0.962558 -3.5849729,3.013844 -4.1613093,5.25543 -0.2785818,1.083507 -0.1981441,3.313515 0.1552532,4.304153 0.2122841,0.595073 0.3045989,0.702437 0.7295967,0.848545 0.9673574,0.332562 1.8442767,1.511038 1.8502358,2.486498 0.0033,0.539803 0.1511105,0.690494 1.2857251,1.310765 1.7050577,0.93212 3.8551834,1.201333 5.7415294,0.718887 z M 4.6964561,25.671032 C 5.326989,25.040499 4.880196,23.949153 3.9915254,23.949153 c -0.5225972,0 -1.0169491,0.494351 -1.0169491,1.016949 0,0.522597 0.4943519,1.016949 1.0169491,1.016949 0.2476746,0 0.5082479,-0.115336 0.7049307,-0.312019 z m 16.0169489,0 c 0.630534,-0.630533 0.183739,-1.721879 -0.70493,-1.721879 -0.53164,0 -1.01695,0.493808 -1.01695,1.034757 0,0.910711 1.070933,1.33807 1.72188,0.687122 z m -8.008474,-15 c 0.412798,-0.412798 0.412798,-0.9970628 0,-1.409861 -0.927539,-0.9275382 -2.343891,0.4713595 -1.445484,1.42767 0.378696,0.403103 1.032628,0.395047 1.445484,-0.01781 z"
     id="path823"
     inkscape:connector-curvature="0" />
  <path
     style="fill:#88aa00;stroke-width:0.12711865"
     d="m 7.0423729,18.856905 c 0,-3.226544 0.033093,-4.055364 0.1588983,-3.979579 0.087394,0.05265 1.2019241,0.945357 2.4767332,1.983803 l 2.3178346,1.888082 2.321996,-1.889622 c 1.277098,-1.039292 2.3935,-1.932003 2.480894,-1.983802 0.125773,-0.07455 0.158898,0.755395 0.158898,3.981118 v 4.075298 h -0.95339 -0.95339 v -2.033898 c 0,-1.118644 -0.0429,-2.032326 -0.09534,-2.030404 -0.05244,0.0019 -0.723344,0.516752 -1.490905,1.144067 -0.767562,0.627316 -1.427075,1.140574 -1.465584,1.140574 -0.03851,0 -0.705799,-0.51483 -1.482867,-1.144067 -0.7770678,-0.629238 -1.4475341,-1.144068 -1.489925,-1.144068 -0.042391,0 -0.077075,0.915254 -0.077075,2.033898 v 2.033898 H 7.9957627 7.0423729 Z"
     id="path825"
     inkscape:connector-curvature="0" />
  <path
     style="fill:#ff0000;stroke-width:0.12711865"
     d="M 9.4576272,28.524827 C 8.9332628,28.383965 7.9894068,28.011187 7.3601695,27.696432 6.7309323,27.381677 6.1422812,27.124818 6.052056,27.125635 5.961831,27.126398 5.7330175,27.241033 5.5435814,27.380264 4.7665372,27.951367 3.2064018,27.921365 2.3441936,27.318735 1.6370829,26.824509 1.2810827,26.198443 1.2189832,25.339928 1.134593,24.173245 1.2606823,23.782532 1.9731573,23.00297 l 0.641464,-0.701862 -0.1892965,-0.8603 C 1.8437642,18.797779 2.1472645,16.506323 3.3979414,14.097458 3.6570299,13.59844 4.2359507,12.889329 5.0724151,12.046421 6.2281253,10.881808 6.4792255,10.696195 7.6873706,10.113453 8.8063479,9.5737208 9.057664,9.3979025 9.2316208,9.0331113 9.5085965,8.4522871 10.1725,7.7092333 10.622306,7.4766298 c 1.475182,-0.7628464 3.214261,-0.1728662 3.98732,1.3526937 0.289629,0.5715536 0.413768,0.6690497 1.679946,1.3193835 2.474391,1.270897 4.09691,3.08679 5.061605,5.664852 0.336173,0.898394 0.357231,1.074381 0.365076,3.050848 0.0055,1.387804 -0.05064,2.327076 -0.165963,2.77612 l -0.174284,0.678662 0.517844,0.528965 c 0.654374,0.668426 0.911235,1.283982 0.911235,2.183737 0,2.159839 -2.238422,3.429447 -4.251054,2.411149 l -0.715568,-0.362045 -1.17135,0.581161 c -1.784882,0.885562 -2.310941,1.013043 -4.412876,1.069382 -1.554015,0.04165 -1.992809,0.0092 -2.7966098,-0.206711 z m 5.1466588,-1.91578 c 0.4885,-0.165107 1.22935,-0.530809 1.646333,-0.812671 0.689015,-0.465746 0.771126,-0.570436 0.900462,-1.148071 0.258654,-1.155178 0.925877,-2.015805 1.86718,-2.40841 0.402093,-0.167708 0.503068,-0.295201 0.684679,-0.864493 0.314292,-0.985205 0.380744,-3.160119 0.127478,-4.172204 C 19.532497,16.01266 18.7246,14.461756 17.952791,13.598752 17.297564,12.866106 15.883393,11.836377 15.069398,11.499209 14.677317,11.336804 14.64974,11.348092 14.035945,11.922225 13.276708,12.632402 12.917363,12.784614 12,12.784614 c -0.918857,0 -1.276611,-0.152121 -2.0424538,-0.868477 L 9.3204137,11.320174 8.4038509,11.755426 c -1.3273676,0.630333 -2.9076009,2.22055 -3.6165317,3.639382 -0.6879651,1.376871 -0.8397642,2.168375 -0.7620895,3.973654 0.084522,1.964427 0.315487,2.614668 1.0388644,2.924745 0.8019832,0.34377 1.5498587,1.266081 1.7374944,2.142751 0.084854,0.396452 0.2653453,0.845086 0.4010927,0.996965 0.3290346,0.368136 1.9410759,1.144648 2.8553988,1.37543 1.122986,0.283452 3.415185,0.182962 4.546206,-0.199306 z M 4.6964562,25.671032 c 0.3859865,-0.385986 0.4051575,-0.933593 0.048555,-1.38694 -0.5729691,-0.728412 -1.7704348,-0.25162 -1.7704348,0.70493 0,0.499014 0.5064295,0.994029 1.0169492,0.994029 0.2476745,0 0.5082479,-0.115336 0.7049306,-0.312019 z M 20.76196,25.648111 c 0.566156,-0.719751 0.131879,-1.698959 -0.753485,-1.698959 -0.586551,0 -1.01695,0.447637 -1.01695,1.05768 0,0.909084 1.213914,1.348782 1.770435,0.641279 z M 12.682009,10.719587 c 0.728413,-0.572969 0.25162,-1.7704345 -0.70493,-1.7704345 -0.515806,0 -0.994028,0.5055162 -0.994028,1.0507607 0,0.8842098 0.968326,1.2943898 1.698958,0.7196738 z"
     id="path822"
     inkscape:connector-curvature="0" />
  <path
     style="fill:#ff0000;stroke-width:0.12711865"
     d="m 7.0589878,19.849576 c 0.00914,-1.695445 0.052041,-3.493787 0.095339,-3.996316 l 0.078724,-0.91369 2.3331271,1.898859 C 10.849398,17.882802 11.944618,18.737288 12,18.737288 c 0.05538,0 1.150602,-0.854438 2.433822,-1.898751 l 2.333127,-1.89875 0.08272,1.0407 c 0.0455,0.572385 0.0884,2.370678 0.09534,3.996208 l 0.01262,2.955508 h -0.95339 -0.953389 v -2.033898 c 0,-1.118644 -0.04831,-2.033898 -0.107358,-2.033898 -0.05905,0 -0.720802,0.486229 -1.470568,1.080508 -0.749766,0.59428 -1.410202,1.080509 -1.467637,1.080509 -0.05743,0 -0.725658,-0.486125 -1.48494,-1.080277 -0.7592832,-0.594152 -1.4234171,-1.080381 -1.4758535,-1.080508 -0.052437,-1.28e-4 -0.095339,0.915022 -0.095339,2.033666 v 2.033898 H 7.9957628 7.0423729 Z"
     id="path824"
     inkscape:connector-curvature="0" />
  <path
     style="fill:#000000;stroke-width:0.12711865"
     d="M 9.1398305,28.350315 C 8.6504237,28.190345 7.7986177,27.849685 7.2469281,27.593291 6.6952387,27.336896 6.1678688,27.127119 6.0749952,27.127119 c -0.092874,0 -0.4137372,0.128707 -0.7130299,0.286015 -0.4066913,0.213758 -0.7529158,0.284829 -1.3704399,0.281315 -1.51266,-0.0086 -2.4475484,-0.780636 -2.677978,-2.211472 -0.167292,-1.038789 -0.00218,-1.605878 0.7107136,-2.441059 0.3129276,-0.366604 0.5689593,-0.751319 0.5689593,-0.854922 0,-0.103603 -0.092598,-0.679057 -0.2057724,-1.278785 C 2.144403,19.620285 2.2094832,17.576776 2.5314811,16.385593 2.644877,15.966102 2.9667895,15.145619 3.2468421,14.562299 3.6772242,13.665858 3.9660695,13.290654 5.1131838,12.137957 6.2943599,10.951033 6.6388246,10.686964 7.7697039,10.101446 8.8619549,9.5359283 9.1191773,9.3431907 9.3834323,8.8922737 10.141751,7.5983011 11.254873,7.0224931 12.502575,7.2787693 c 0.839721,0.1724774 1.431376,0.6212464 2.058869,1.5616481 0.36077,0.5406713 0.643556,0.7897041 1.271187,1.1194563 2.347664,1.2334443 3.884485,2.6752263 4.848539,4.5487003 0.85164,1.655016 0.979847,2.210657 0.979847,4.246594 0,0.963268 -0.06392,2.181181 -0.14205,2.706473 l -0.14205,0.955077 0.577004,0.641768 c 0.698473,0.77687 0.92656,1.575986 0.716879,2.511622 -0.189945,0.847578 -0.56161,1.379855 -1.243304,1.780593 -0.8184,0.481101 -1.951103,0.484097 -2.92417,0.0077 L 17.824448,27.0261 16.405869,27.703697 c -1.697908,0.811021 -2.386479,0.950634 -4.651673,0.943163 -1.442585,-0.0048 -1.8700166,-0.05325 -2.6143655,-0.296545 z m 4.7824575,-1.533156 c 1.55348,-0.329283 3.070917,-1.272012 3.232639,-2.008322 0.250891,-1.142301 0.904428,-2.03667 1.835243,-2.511535 0.68471,-0.349314 0.907532,-0.981144 0.986502,-2.797302 0.07948,-1.827913 -0.07521,-2.603798 -0.812968,-4.077533 -0.685828,-1.370009 -1.617113,-2.417485 -2.930081,-3.295651 -1.330438,-0.889852 -1.444059,-0.903453 -2.202777,-0.263693 -1.459234,1.230444 -2.652516,1.21733 -4.0955618,-0.04501 L 9.2836291,11.248059 8.3854586,11.719274 C 6.751903,12.5763 5.2072497,14.296077 4.365568,16.194915 c -0.2850091,0.642982 -0.3099306,0.857453 -0.3101953,2.669492 -3.433e-4,2.391384 0.1763373,3.035927 0.9388683,3.424942 0.7466417,0.380907 1.4979882,1.286659 1.7303452,2.085939 0.1119105,0.38496 0.3261979,0.855945 0.4761939,1.046633 0.2899487,0.368611 2.0228459,1.243874 2.8448339,1.43689 0.764421,0.179496 2.943812,0.156081 3.876674,-0.04165 z M 4.6964561,25.671032 c 0.4003646,-0.400364 0.4060517,-0.962789 0.01434,-1.41818 -0.6165392,-0.71677 -1.73622,-0.248458 -1.73622,0.726181 0,0.900953 1.0792084,1.334671 1.72188,0.691999 z M 20.76196,25.648111 c 0.566548,-0.720248 0.142753,-1.698959 -0.735671,-1.698959 -0.924221,0 -1.389659,1.067711 -0.758368,1.739689 0.401013,0.426858 1.142126,0.406655 1.494039,-0.04073 z m -8.001979,-14.97995 c 0.628167,-0.6686532 0.155899,-1.7190085 -0.772913,-1.7190085 -0.587113,0 -1.004017,0.4557845 -1.004017,1.0976515 0,0.897572 1.142213,1.296982 1.77693,0.621357 z"
     id="path821"
     inkscape:connector-curvature="0" />
  <path
     style="fill:#000000;stroke-width:0.12711865"
     d="m 7.1071063,19.53178 c 0.040619,-1.870233 0.102834,-3.639906 0.1382564,-3.932606 l 0.064404,-0.532181 2.2806917,1.835147 c 1.2543806,1.009332 2.3376846,1.835148 2.4073426,1.835148 0.06966,0 1.154266,-0.823724 2.410239,-1.830497 l 2.283588,-1.830498 0.06489,0.527531 c 0.03569,0.290143 0.100782,2.057723 0.144643,3.927956 l 0.07975,3.400423 H 16.01588 15.050847 v -2.033898 c 0,-1.162423 -0.05042,-2.033898 -0.117679,-2.033898 -0.06472,0 -0.719838,0.457627 -1.45581,1.016949 -0.735972,0.559322 -1.399718,1.016949 -1.474992,1.016949 -0.07527,0 -0.744691,-0.457627 -1.487596,-1.016949 -0.742904,-0.559322 -1.3990833,-1.016949 -1.4581762,-1.016949 -0.059093,0 -0.1074413,0.915254 -0.1074413,2.033898 v 2.033898 H 7.9912034 7.0332543 Z"
     id="path826"
     inkscape:connector-curvature="0" />
</svg>
