<?xml version="1.0" encoding="UTF-8" standalone="no"?>
<svg
   xmlns:dc="http://purl.org/dc/elements/1.1/"
   xmlns:cc="http://creativecommons.org/ns#"
   xmlns:rdf="http://www.w3.org/1999/02/22-rdf-syntax-ns#"
   xmlns:svg="http://www.w3.org/2000/svg"
   xmlns="http://www.w3.org/2000/svg"
   xmlns:sodipodi="http://sodipodi.sourceforge.net/DTD/sodipodi-0.dtd"
   xmlns:inkscape="http://www.inkscape.org/namespaces/inkscape"
   width="24px"
   height="40px"
   viewBox="0 0 24 40"
   version="1.1"
   id="svg13"
   sodipodi:docname="ic-nav-receive-active.svg"
   inkscape:version="0.92.3 (2405546, 2018-03-11)">
  <metadata
     id="metadata19">
    <rdf:RDF>
      <cc:Work
         rdf:about="">
        <dc:format>image/svg+xml</dc:format>
        <dc:type
           rdf:resource="http://purl.org/dc/dcmitype/StillImage" />
      </cc:Work>
    </rdf:RDF>
  </metadata>
  <defs
     id="defs17" />
  <sodipodi:namedview
     pagecolor="#ffffff"
     bordercolor="#666666"
     borderopacity="1"
     objecttolerance="10"
     gridtolerance="10"
     guidetolerance="10"
     inkscape:pageopacity="0"
     inkscape:pageshadow="2"
     inkscape:window-width="1842"
     inkscape:window-height="1058"
     id="namedview15"
     showgrid="false"
     inkscape:zoom="5.9"
     inkscape:cx="-41.220338"
     inkscape:cy="20"
     inkscape:window-x="67"
     inkscape:window-y="27"
     inkscape:window-maximized="0"
     inkscape:current-layer="svg13" />
  <!-- Generator: Sketch 52.6 (67491) - http://www.bohemiancoding.com/sketch -->
  <title
     id="title2">Receive off</title>
  <desc
     id="desc4">Created with Sketch.</desc>
  <g
     id="Receive-off"
     stroke="none"
     stroke-width="1"
     fill="none"
     fill-rule="evenodd">
    <g
       id="ic-receive-on"
       transform="translate(-1.000000, 11.000000)">
      <polygon
         id="Rectangle_4413"
         points="0 0 26 0 26 26 0 26" />
      <g
         id="Group_8987"
         transform="translate(2.000000, 2.000000)"
         fill="#B088FF">
        <g
           id="Group_8986">
          <polygon
             id="Path_18953"
             points="18.178 10.734 16.822 9.265 12 13.716 12 0 10 0 10 13.716 5.178 9.266 3.822 10.734 11 17.361" />
          <polygon
             id="Path_18954"
             points="20 15 20 20 2 20 2 15 0 15 0 22 22 22 22 15" />
        </g>
      </g>
    </g>
  </g>
  <path
     style="fill:#88aa00;stroke-width:0.16949153"
     d="m 1.1186441,31.525424 v -3.389831 h 0.9322034 0.9322033 v 2.457627 2.457627 h 9.0677962 9.067797 V 30.59322 28.135593 h 0.932203 0.932204 v 3.389831 3.38983 H 12.050847 1.1186441 Z"
     id="path826"
     inkscape:connector-curvature="0" />
  <path
     style="fill:#88aa00;stroke-width:0.16949153"
     d="M 8.4968931,27.048307 C 6.6354385,25.333519 5.0940033,23.866061 5.0714816,23.787289 c -0.022522,-0.07877 0.215258,-0.442806 0.5283995,-0.808966 l 0.5693481,-0.665746 2.3130805,2.148796 c 1.2721942,1.181838 2.3858123,2.148796 2.4747073,2.148796 0.09981,0 0.161627,-2.592806 0.161627,-6.779661 v -6.779661 h 0.930302 0.930302 l 0.04428,6.839921 0.04427,6.83992 2.365516,-2.183776 2.365517,-2.183775 0.656116,0.656116 0.656116,0.656116 -1.07248,1.015503 c -2.820851,2.670986 -5.910409,5.478448 -6.027251,5.476926 -0.07149,-8.47e-4 -1.652983,-1.404703 -3.5144389,-3.119491 z"
     id="path828"
     inkscape:connector-curvature="0" />
  <path
     style="fill:#ff0000;stroke-width:0.16949153"
     d="m 1.1186441,31.525424 v -3.389831 h 0.9322034 0.9322033 v 2.457627 2.457627 h 9.0677962 9.067797 V 30.59322 28.135593 h 0.932203 0.932204 v 3.389831 3.38983 H 12.050847 1.1186441 Z"
     id="path825"
     inkscape:connector-curvature="0" />
  <path
     style="fill:#ff0000;stroke-width:0.16949153"
     d="M 10.524925,28.786856 C 7.8955912,26.433541 5.1864407,23.858377 5.1864407,23.712398 c 0,-0.08125 0.2195775,-0.393478 0.4879501,-0.693839 l 0.4879501,-0.546111 0.7702427,0.670556 c 0.4236335,0.368805 1.4618806,1.299793 2.3072159,2.06886 0.8453355,0.769068 1.6138945,1.398305 1.7079085,1.398305 0.112071,0 0.170936,-2.334696 0.170936,-6.779661 v -6.779661 h 0.930302 0.930302 l 0.04428,6.896525 0.04427,6.896524 2.343605,-2.177213 2.343605,-2.177213 0.609764,0.609765 0.609765,0.609764 -1.597438,1.504436 C 14.489979,27.932468 12.179812,30 12.028807,30 11.94716,30 11.270413,29.454085 10.524925,28.786856 Z"
     id="path827"
     inkscape:connector-curvature="0" />
  <path
     style="fill:#000000;stroke-width:0.16949153"
     d="m 1.1186446,31.525424 v -3.389831 h 0.9322033 0.9322034 v 2.457627 2.457627 h 9.0677967 9.067797 V 30.59322 28.135593 h 0.932203 0.932203 v 3.389831 3.38983 H 12.050848 1.1186446 Z"
     id="path824"
     inkscape:connector-curvature="0" />
  <path
     style="fill:#000000;stroke-width:0.16949153"
     d=""
     id="path829"
     inkscape:connector-curvature="0" />
  <path
     style="fill:#000000;stroke-width:0.16949153"
     d="m 10.160208,28.350293 c -2.3192328,-2.05729 -4.8042753,-4.469927 -4.8042753,-4.664295 0,-0.08937 0.1837421,-0.380853 0.4083159,-0.647743 l 0.4083158,-0.485256 2.2611758,2.021769 c 1.2436466,1.111974 2.3565148,2.024837 2.4730398,2.028586 0.166074,0.0053 0.211865,-1.458476 0.211865,-6.772846 v -6.779661 h 0.932203 0.932203 v 6.864407 c 0,3.775424 0.0572,6.862689 0.127119,6.860589 0.06991,-0.0021 1.114416,-0.917355 2.321113,-2.033899 1.206697,-1.116544 2.241156,-2.03008 2.298798,-2.03008 0.05764,0 0.328819,0.235049 0.602616,0.522331 l 0.497812,0.522331 -1.102529,1.045466 c -2.576499,2.443147 -5.504096,5.028516 -5.694146,5.028516 -0.112719,0 -0.955851,-0.666096 -1.873626,-1.480215 z"
     id="path831"
     inkscape:connector-curvature="0" />
</svg>
