<?xml version="1.0" encoding="UTF-8" standalone="no"?>
<svg
   xmlns:dc="http://purl.org/dc/elements/1.1/"
   xmlns:cc="http://creativecommons.org/ns#"
   xmlns:rdf="http://www.w3.org/1999/02/22-rdf-syntax-ns#"
   xmlns:svg="http://www.w3.org/2000/svg"
   xmlns="http://www.w3.org/2000/svg"
   xmlns:sodipodi="http://sodipodi.sourceforge.net/DTD/sodipodi-0.dtd"
   xmlns:inkscape="http://www.inkscape.org/namespaces/inkscape"
   width="24px"
   height="40px"
   viewBox="0 0 24 40"
   version="1.1"
   id="svg13"
   sodipodi:docname="ic-nav-settings-active.svg"
   inkscape:version="0.92.3 (2405546, 2018-03-11)">
  <metadata
     id="metadata19">
    <rdf:RDF>
      <cc:Work
         rdf:about="">
        <dc:format>image/svg+xml</dc:format>
        <dc:type
           rdf:resource="http://purl.org/dc/dcmitype/StillImage" />
      </cc:Work>
    </rdf:RDF>
  </metadata>
  <defs
     id="defs17" />
  <sodipodi:namedview
     pagecolor="#ffffff"
     bordercolor="#666666"
     borderopacity="1"
     objecttolerance="10"
     gridtolerance="10"
     guidetolerance="10"
     inkscape:pageopacity="0"
     inkscape:pageshadow="2"
     inkscape:window-width="1851"
     inkscape:window-height="958"
     id="namedview15"
     showgrid="false"
     inkscape:zoom="5.9"
     inkscape:cx="-41.220338"
     inkscape:cy="20"
     inkscape:window-x="67"
     inkscape:window-y="27"
     inkscape:window-maximized="0"
     inkscape:current-layer="svg13" />
  <!-- Generator: Sketch 52.6 (67491) - http://www.bohemiancoding.com/sketch -->
  <title
     id="title2">Artboard</title>
  <desc
     id="desc4">Created with Sketch.</desc>
  <g
     id="Artboard"
     stroke="none"
     stroke-width="1"
     fill="none"
     fill-rule="evenodd">
    <g
       id="ic_settings-active"
       transform="translate(1.000000, 13.000000)"
       fill="#B088FF"
       fill-rule="nonzero">
      <g
         id="Group_8818">
        <g
           id="Group_8816">
          <path
             d="M13.9,22 L8.1,22 L7.787,18.864 L7.72,18.837 L5.281,20.837 L1.167,16.725 L3.167,14.285 L3.139,14.219 L0,13.9 L0,8.1 L3.135,7.786 L3.163,7.72 L1.163,5.28 L5.276,1.168 L7.715,3.168 L7.782,3.141 L8.1,0 L13.9,0 L14.213,3.136 L14.28,3.163 L16.719,1.163 L20.828,5.27 L18.828,7.71 L18.856,7.776 L22,8.1 L22,13.9 L18.865,14.214 L18.837,14.28 L20.837,16.72 L16.728,20.827 L14.289,18.827 L14.222,18.854 L13.9,22 Z M9.9,20 L12.1,20 L12.361,17.39 L12.987,17.19 C13.3287124,17.08012 13.660554,16.9416296 13.979,16.776 L14.562,16.476 L16.595,18.14 L18.143,16.591 L16.479,14.556 L16.779,13.972 C16.9446037,13.6542337 17.0830952,13.3230586 17.193,12.982 L17.393,12.357 L20,12.1 L20,9.9 L17.39,9.639 L17.19,9.014 C17.0800952,8.67294144 16.9416037,8.3417663 16.776,8.024 L16.476,7.44 L18.138,5.41 L16.59,3.861 L14.557,5.525 L13.974,5.225 C13.655552,5.05937466 13.3237108,4.92088448 12.982,4.811 L12.356,4.611 L12.1,2 L9.9,2 L9.639,4.61 L9.013,4.81 C8.67128919,4.91988448 8.33944799,5.05837466 8.021,5.224 L7.438,5.524 L5.41,3.861 L3.862,5.41 L5.526,7.445 L5.226,8.029 C5.06039627,8.3467663 4.92190485,8.67794144 4.812,9.019 L4.612,9.644 L2,9.9 L2,12.1 L4.61,12.361 L4.81,12.986 C4.91990485,13.3270586 5.05839627,13.6582337 5.224,13.976 L5.524,14.56 L3.862,16.59 L5.41,18.139 L7.443,16.475 L8.026,16.775 C8.34444598,16.9406296 8.67628755,17.07912 9.018,17.189 L9.644,17.389 L9.9,20 Z"
             id="Path_18871" />
        </g>
        <g
           id="Group_8817"
           transform="translate(7.000000, 7.000000)">
          <path
             d="M4,8 C1.790861,8 0,6.209139 0,4 C0,1.790861 1.790861,0 4,0 C6.209139,0 8,1.790861 8,4 C8,5.06086596 7.57857264,6.07828161 6.82842712,6.82842712 C6.07828161,7.57857264 5.06086596,8 4,8 Z M4,2 C2.8954305,2 2,2.8954305 2,4 C2,5.1045695 2.8954305,6 4,6 C5.1045695,6 6,5.1045695 6,4 C6,2.8954305 5.1045695,2 4,2 Z"
             id="Path_18872" />
        </g>
      </g>
    </g>
  </g>
  <path
     style="fill:#88aa00;stroke-width:0.16949153"
     d="M 9.1421059,34.70339 C 9.1049292,34.586864 9.0245444,33.900424 8.9634729,33.177966 8.9024015,32.455508 8.7975103,31.864407 8.7303815,31.864407 c -0.067129,0 -0.6419718,0.428854 -1.2774288,0.953008 L 6.2975764,33.770424 4.272002,31.744849 2.2464278,29.719275 3.1910105,28.566899 c 0.5195205,-0.633806 0.9445827,-1.212441 0.9445827,-1.285854 0,-0.07341 -0.5911017,-0.183447 -1.3135593,-0.244518 C 2.0995763,26.975456 1.4131356,26.895071 1.2966102,26.857894 1.1384194,26.807424 1.0847458,26.082405 1.0847458,23.996051 v -2.79425 l 0.5508474,-0.0853 C 1.9385593,21.069585 2.625,20.98437 3.1610169,20.927133 c 0.536017,-0.05724 0.9745763,-0.158267 0.9745763,-0.224511 0,-0.06625 -0.43112,-0.639841 -0.9580444,-1.274658 l -0.9580443,-1.154213 2.0220869,-2.022087 2.0220867,-2.022087 1.134828,0.936059 c 0.6241554,0.514832 1.2066256,0.936059 1.294378,0.936059 0.087752,0 0.2095174,-0.591102 0.2705888,-1.313559 0.061072,-0.722458 0.1414563,-1.408899 0.178633,-1.525424 0.05047,-0.158191 0.7754887,-0.211865 2.8618431,-0.211865 h 2.79425 l 0.08299,0.550848 c 0.04564,0.302966 0.144437,1.028389 0.219545,1.61205 l 0.136558,1.061204 1.257519,-1.029924 1.257518,-1.029923 2.005194,1.999969 c 1.102856,1.099983 2.005193,2.009587 2.005193,2.021343 0,0.01176 -0.459968,0.584982 -1.022151,1.273836 l -1.022151,1.252462 1.064524,0.132009 c 0.585488,0.0726 1.312405,0.1714 1.615371,0.219545 l 0.550848,0.08753 v 2.79425 c 0,2.086354 -0.05367,2.811373 -0.211865,2.861843 -0.116525,0.03718 -0.802966,0.117562 -1.525424,0.178633 -0.722457,0.06107 -1.313559,0.186433 -1.313559,0.278581 0,0.09215 0.426073,0.669772 0.946827,1.283609 l 0.946829,1.116067 -2.02782,2.027819 -2.027819,2.027821 -1.155376,-0.953009 c -0.635457,-0.524154 -1.21132,-0.953008 -1.279694,-0.953008 -0.06837,0 -0.171148,0.438559 -0.228385,0.974576 -0.05724,0.536017 -0.142452,1.222458 -0.189368,1.525424 l -0.0853,0.550847 h -2.79425 c -2.0863544,0 -2.8113732,-0.05367 -2.8618431,-0.211864 z m 4.0392011,-2.033898 c 0.05621,-0.209746 0.104283,-0.648306 0.106829,-0.974577 0.0063,-0.804268 0.169077,-1.355478 0.401123,-1.358113 0.105654,-0.0012 0.573453,-0.180229 1.039555,-0.397843 l 0.847457,-0.395662 1.001154,0.831396 1.001154,0.831395 0.813001,-0.800778 0.813001,-0.800776 -0.811832,-1.03108 -0.811833,-1.031081 0.429042,-1.016949 c 0.235971,-0.559322 0.440476,-1.036905 0.454452,-1.061295 0.01398,-0.02439 0.590202,-0.100662 1.2805,-0.169492 L 21,25.169492 21.04962,24.047088 c 0.0552,-1.248634 -0.02041,-1.325077 -1.32081,-1.335224 -1.107872,-0.0086 -1.276251,-0.13237 -1.721219,-1.264758 l -0.420521,-1.070175 0.815392,-0.988987 0.815393,-0.988987 -0.789313,-0.801364 -0.789315,-0.801364 -0.438259,0.32669 c -0.241043,0.179679 -0.694839,0.543374 -1.008436,0.808209 l -0.570175,0.48152 -1.069821,-0.420382 c -1.13201,-0.444819 -1.255761,-0.613265 -1.264404,-1.72108 -0.01015,-1.300395 -0.08659,-1.376013 -1.335224,-1.320809 L 10.830508,15 10.705363,16.255089 c -0.06883,0.690299 -0.145101,1.266032 -0.169492,1.279406 -0.02439,0.01337 -0.516348,0.222629 -1.0932388,0.465012 L 8.3937388,18.440202 7.6629712,17.832937 C 7.2610488,17.498941 6.8134503,17.126821 6.6683076,17.006004 6.443038,16.818488 6.2861544,16.906398 5.5964673,17.606614 l -0.8079446,0.820279 0.8306156,0.998418 0.8306154,0.998418 -0.3921874,0.847457 c -0.2157032,0.466102 -0.393169,0.933901 -0.3943685,1.039555 -0.00263,0.232046 -0.5538449,0.394848 -1.3581131,0.401123 -1.3003959,0.01015 -1.3760133,0.08659 -1.3208094,1.335224 0.04331,0.979616 0.092747,1.12661 0.3886061,1.15547 1.8003489,0.17562 2.2883423,0.270507 2.2897913,0.445231 9.153e-4,0.109818 0.1806671,0.584093 0.399459,1.053945 l 0.3978032,0.854277 -0.4965864,0.586401 C 5.6902261,28.464933 5.3235193,28.92603 5.1484446,29.167073 l -0.3183175,0.43826 0.8015231,0.78947 0.8015229,0.789472 1.0104477,-0.81977 1.0104477,-0.81977 0.8492369,0.395468 c 0.4670804,0.217507 0.9345966,0.396214 1.0389246,0.397124 0.205295,0.0018 0.398678,0.907014 0.401667,1.880187 10e-4,0.33404 0.05271,0.658193 0.11486,0.720339 0.06215,0.06215 0.58715,0.112994 1.166673,0.112994 0.949427,0 1.06379,-0.03773 1.155877,-0.381355 z"
     id="path826"
     inkscape:connector-curvature="0" />
  <path
     style="fill:#88aa00;stroke-width:0.16949153"
     d="m 10.724298,27.701027 c -1.3927704,-0.428863 -2.6903997,-2.1596 -2.6903997,-3.588369 0,-2.184727 1.8080058,-4.000781 3.9830507,-4.000781 2.217817,0 3.872891,1.654842 3.871714,3.871174 -9.32e-4,1.756259 -1.226619,3.385907 -2.854992,3.795936 -0.937975,0.236184 -1.332402,0.222869 -2.309373,-0.07796 z m 2.164333,-1.876424 C 14.747991,24.942278 14.09913,22 12.045191,22 c -2.2066793,0 -2.9074141,2.983499 -0.90528,3.854384 0.710046,0.308855 1.047197,0.303113 1.74872,-0.02978 z"
     id="path828"
     inkscape:connector-curvature="0" />
  <path
     style="fill:#ff0000;stroke-width:0.16949153"
     d="M 9.9521275,34.791712 C 9.1652885,34.720319 9.17386,34.737264 8.9644664,32.838983 8.90534,32.302966 8.7962369,31.864407 8.7220151,31.864407 c -0.074222,0 -0.6461465,0.394639 -1.2709434,0.876976 L 6.3150771,33.618359 4.3513737,31.654656 2.3876704,29.690952 3.2616319,28.59263 c 0.4806786,-0.604077 0.8739613,-1.177358 0.8739613,-1.273958 0,-0.0966 -0.4385593,-0.224012 -0.9745763,-0.283138 C 1.2147962,26.820852 1.3136918,26.886475 1.1927633,25.729493 1.1333537,25.161092 1.0847458,23.915263 1.0847458,22.960984 v -1.735053 l 1.1440678,-0.11734 c 1.4184986,-0.145486 1.9067796,-0.25759 1.9067796,-0.437773 0,-0.07694 -0.3813559,-0.61507 -0.8474576,-1.195844 C 2.8220339,18.8942 2.440678,18.373074 2.440678,18.316916 c 0,-0.05616 0.8691681,-0.968809 1.9314849,-2.028112 l 1.9314847,-1.926005 1.0745368,0.869448 c 0.9981976,0.807679 1.4925642,1.050615 1.5106142,0.742329 0.043587,-0.744438 0.3163136,-2.626016 0.3915326,-2.701235 0.053416,-0.05342 1.3051328,-0.135665 2.7815948,-0.182776 l 2.684475,-0.08566 0.210967,1.584539 c 0.116032,0.871496 0.240337,1.613907 0.276233,1.649803 0.0359,0.0359 0.609947,-0.374816 1.275668,-0.912695 l 1.210404,-0.977961 1.966012,1.966013 1.966012,1.966012 -0.984729,1.203634 c -0.541602,0.661998 -0.952382,1.235984 -0.912843,1.275523 0.03954,0.03954 0.784933,0.166824 1.656429,0.282856 l 1.584538,0.210967 -0.08566,2.684475 c -0.04711,1.476462 -0.129361,2.728179 -0.182777,2.781595 -0.07522,0.07522 -1.956796,0.347945 -2.701235,0.391532 -0.309263,0.01811 -0.06427,0.509346 0.749732,1.503287 l 0.876849,1.070686 -1.966591,1.966592 -1.966594,1.966593 -1.135993,-0.876976 c -0.624797,-0.482337 -1.193942,-0.876976 -1.264765,-0.876976 -0.169162,0 -0.283493,0.510962 -0.426653,1.906779 l -0.11734,1.144068 -2.056526,-0.02961 c -1.131089,-0.01629 -2.375526,-0.05855 -2.7654155,-0.09393 z m 3.2361305,-2.12222 c 0.04184,-0.209746 0.138631,-0.78639 0.215093,-1.281433 l 0.139022,-0.900074 1.002809,-0.406038 c 1.103047,-0.446624 1.046787,-0.458644 2.143692,0.458004 0.425491,0.355569 0.84817,0.64649 0.939287,0.64649 0.194464,0 1.592178,-1.391978 1.592178,-1.585644 0,-0.07267 -0.345322,-0.556054 -0.767383,-1.074177 -0.823787,-1.011286 -0.823102,-1.00413 -0.22541,-2.355313 0.277923,-0.62829 0.406785,-0.747578 0.807576,-0.747578 0.262288,0 0.833876,-0.04893 1.270197,-0.108735 l 0.79331,-0.108735 -0.04931,-1.204825 L 21,22.79661 19.898305,22.675956 c -1.237263,-0.135502 -1.484397,-0.333724 -1.956156,-1.569009 l -0.287157,-0.751913 0.782674,-0.91613 c 0.43047,-0.503871 0.782673,-0.987365 0.782673,-1.07443 0,-0.18925 -1.396295,-1.584813 -1.585644,-1.584813 -0.07267,0 -0.556053,0.345322 -1.074177,0.767383 -1.012907,0.825108 -1.091365,0.833009 -2.286306,0.230241 -0.788649,-0.397821 -0.813245,-0.442125 -0.954033,-1.718492 L 13.20339,15 11.988831,14.95049 10.774273,14.90098 10.663245,16.052185 c -0.06107,0.633163 -0.134904,1.227477 -0.164086,1.320697 -0.02918,0.09322 -0.513518,0.350192 -1.0763019,0.571048 L 8.3996136,18.345485 7.4337283,17.55868 C 6.373588,16.695096 6.4526458,16.68993 5.3644068,17.693899 c -0.3029661,0.279505 -0.5508475,0.593908 -0.5508475,0.698672 0,0.104764 0.2490834,0.490226 0.5535187,0.856582 1.0329757,1.243078 0.9976623,1.102429 0.5528178,2.201808 L 5.5125659,22.457627 4.273232,22.629601 3.0338983,22.801576 v 1.178597 1.178597 l 0.6779661,0.119844 c 0.3728814,0.06591 0.9461178,0.16377 1.273859,0.217458 0.5351888,0.08767 0.6298474,0.188237 0.9292047,0.987211 0.1833216,0.489279 0.3565856,0.936303 0.3850312,0.993388 0.028446,0.05708 -0.2943576,0.528634 -0.7173403,1.04789 -0.4229829,0.519256 -0.7690597,1.003562 -0.7690597,1.076236 0,0.190005 1.3958895,1.585644 1.585929,1.585644 0.08768,0 0.5792944,-0.345666 1.0924771,-0.768146 0.5131826,-0.42248 0.9788875,-0.746633 1.0348999,-0.720339 0.056012,0.02629 0.4828393,0.196434 0.9485045,0.378088 0.4656653,0.181654 0.8949062,0.40047 0.9538682,0.486256 0.05896,0.08579 0.15892,0.680803 0.222128,1.322261 l 0.114923,1.166286 h 1.172948 c 1.080857,0 1.178921,-0.02994 1.249021,-0.381355 z"
     id="path825"
     inkscape:connector-curvature="0" />
  <path
     style="fill:#ff0000;stroke-width:0.16949153"
     d=""
     id="path827"
     inkscape:connector-curvature="0" />
  <path
     style="fill:#ff0000;stroke-width:0.16949153"
     d="M 10.491525,27.478163 C 9.0991022,26.839418 8.1358173,25.401926 8.1480359,23.981018 c 0.0189,-2.197947 2.1860891,-4.053412 4.3827321,-3.752329 3.023122,0.414365 4.315108,3.890752 2.314582,6.227917 -1.09248,1.276317 -2.882757,1.696378 -4.353825,1.021557 z m 2.455756,-1.629737 c 0.269372,-0.139299 0.608805,-0.423218 0.754295,-0.630934 0.329768,-0.47081 0.342872,-1.692989 0.02475,-2.308174 -0.68267,-1.320139 -2.86785,-1.223593 -3.582445,0.158282 -0.9314248,1.801177 0.997583,3.714651 2.803402,2.780826 z"
     id="path829"
     inkscape:connector-curvature="0" />
  <path
     style="fill:#000000;stroke-width:0.16949153"
     d="M 11.68852,34.792086 C 10.575681,34.760388 9.5688257,34.654492 9.4510646,34.556758 9.3333034,34.459025 9.1901727,34.02301 9.1329963,33.587836 8.9543285,32.22798 8.8599302,31.864407 8.6855239,31.864407 c -0.092894,0 -0.614939,0.34322 -1.1600997,0.762712 -0.5451607,0.419491 -1.0554986,0.762712 -1.1340844,0.762712 -0.078586,0 -0.9710757,-0.830768 -1.9833112,-1.846153 -1.2942891,-1.298315 -1.7995705,-1.914439 -1.7027429,-2.076271 0.075727,-0.126565 0.4285253,-0.618405 0.7839965,-1.092978 0.3554713,-0.474572 0.6463115,-0.945207 0.6463115,-1.045855 0,-0.188332 -0.3439903,-0.280147 -1.7368474,-0.463582 C 1.8859023,26.797452 1.5365649,26.651513 1.4354419,26.462563 1.3481787,26.299511 1.2526414,25.065425 1.2231368,23.720152 L 1.169492,21.2742 2.2711869,21.152235 c 1.4363058,-0.159009 1.8644068,-0.271608 1.8644068,-0.490372 0,-0.09852 -0.3432203,-0.625177 -0.7627119,-1.170338 C 2.9533903,18.946365 2.61017,18.436027 2.61017,18.357441 c 0,-0.07859 0.8373341,-0.977621 1.8607424,-1.997856 l 1.8607423,-1.854972 0.4697661,0.366314 c 1.1866626,0.925337 1.7495914,1.26372 1.9648712,1.18111 0.1521205,-0.05837 0.2729693,-0.51892 0.3479973,-1.326192 0.06322,-0.680218 0.1939668,-1.285598 0.2905493,-1.34529 0.217377,-0.134346 5.0899864,-0.365956 5.2083734,-0.24757 0.04716,0.04716 0.18279,0.742112 0.301401,1.54434 0.118612,0.802227 0.256782,1.49972 0.307046,1.549984 0.05026,0.05026 0.522637,-0.243454 1.049717,-0.652706 0.52708,-0.409252 1.06298,-0.819963 1.190888,-0.91269 0.336689,-0.244084 4.119908,3.539135 3.875823,3.875824 -0.09273,0.127908 -0.503437,0.663807 -0.91269,1.190887 -0.409252,0.52708 -0.702969,0.999453 -0.652705,1.049717 0.05026,0.05026 0.747756,0.188435 1.549983,0.307046 0.802229,0.118612 1.497181,0.254242 1.544341,0.301402 0.11622,0.116221 -0.111968,4.988963 -0.243605,5.201958 -0.05751,0.09305 -0.674166,0.231281 -1.370346,0.30717 -1.577626,0.171975 -1.646387,0.359971 -0.601071,1.643336 0.424454,0.521116 0.771735,1.007065 0.771735,1.079887 0,0.175686 -3.61039,3.770691 -3.786828,3.770691 -0.07547,0 -0.583265,-0.343221 -1.128426,-0.762712 -0.545161,-0.419492 -1.068126,-0.762712 -1.162145,-0.762712 -0.235284,0 -0.373928,0.502905 -0.505536,1.833746 -0.129779,1.31234 0.222582,1.190061 -3.152274,1.093933 z m 1.704363,-2.981578 c 0.10422,-0.635577 0.256763,-1.216649 0.338983,-1.291272 0.08222,-0.07462 0.511561,-0.270394 0.954093,-0.435046 l 0.804602,-0.299366 0.698695,0.488944 c 1.572148,1.100183 1.404603,1.082432 2.263211,0.239773 0.42233,-0.414487 0.767872,-0.826139 0.767872,-0.914785 0,-0.08865 -0.305084,-0.565255 -0.677966,-1.059133 -0.372881,-0.493878 -0.677966,-1.005944 -0.677966,-1.137924 0,-0.436435 0.672919,-1.770274 0.945958,-1.875049 0.147513,-0.05661 0.547986,-0.103963 0.889939,-0.105236 1.324715,-0.0049 1.384442,-0.06699 1.384442,-1.438602 V 22.750923 L 20.11017,22.6295 c -1.202688,-0.149843 -1.493637,-0.299535 -1.824037,-0.938459 -0.620359,-1.199641 -0.617147,-1.238106 0.185057,-2.216049 0.412033,-0.502296 0.749149,-0.993266 0.749149,-1.091043 0,-0.201171 -1.384054,-1.604288 -1.582493,-1.604288 -0.07094,0 -0.57583,0.315124 -1.121974,0.700275 -1.098034,0.774355 -1.375235,0.786391 -2.390347,0.103787 -0.531796,-0.357603 -0.596092,-0.49237 -0.73009,-1.530303 l -0.146939,-1.138166 h -1.231599 c -1.351487,0 -1.429682,0.069 -1.440625,1.271187 -0.01022,1.122995 -0.09549,1.221683 -1.6190422,1.873771 -0.4911654,0.210221 -0.5597856,0.187802 -1.3559322,-0.443015 -0.4612219,-0.365443 -0.9947164,-0.665252 -1.1855432,-0.666243 -0.190827,-9.83e-4 -0.6426587,0.301023 -1.0040703,0.671143 -0.7411809,0.759038 -0.7319107,0.834254 0.2654484,2.153799 l 0.5352066,0.708099 -0.3161928,0.879302 c -0.3504804,0.974654 -0.5056565,1.073256 -1.972417,1.253318 L 2.949153,22.736256 v 1.243677 1.243677 l 1.1995941,0.202337 c 1.0616961,0.179079 1.2363983,0.262858 1.5197602,0.728809 0.6148254,1.011 0.589832,1.36923 -0.1653119,2.369411 -0.3792995,0.502378 -0.6896356,0.979869 -0.6896356,1.06109 0,0.202104 1.3872849,1.601184 1.5876846,1.601184 0.088645,0 0.5652554,-0.305085 1.0591332,-0.677966 0.4938778,-0.372882 0.9824319,-0.677967 1.0856758,-0.677967 0.1032439,0 0.5557674,0.158333 1.0056079,0.351848 0.8532767,0.367069 1.0246107,0.677907 1.0246107,1.858866 0,0.956386 0.104317,1.028002 1.419127,0.974258 L 13.20339,32.9661 Z"
     id="path830"
     inkscape:connector-curvature="0" />
  <path
     style="fill:#000000;stroke-width:0.16949153"
     d="M 10.986469,27.561242 C 9.0248198,26.936258 7.862355,24.946799 8.365976,23.076494 c 0.2399992,-0.891289 1.2218021,-2.009699 2.12555,-2.421297 0.979155,-0.445941 2.391017,-0.412713 3.320799,0.07815 2.006792,1.059462 2.488605,3.902665 0.956967,5.647104 -0.970396,1.10522 -2.510811,1.586052 -3.782823,1.180787 z m 2.403362,-2.035818 c 0.514774,-0.514774 0.576271,-0.675122 0.576271,-1.502567 0,-1.107591 -0.381249,-1.695253 -1.29557,-1.997006 -1.316776,-0.434575 -2.7722264,0.55973 -2.7722264,1.893875 0,1.361719 0.8018224,2.162517 2.1779664,2.175183 0.617193,0.0057 0.831155,-0.08708 1.313559,-0.569485 z"
     id="path832"
     inkscape:connector-curvature="0" />
</svg>
