<?xml version="1.0" encoding="UTF-8" standalone="no"?>
<svg
   xmlns:dc="http://purl.org/dc/elements/1.1/"
   xmlns:cc="http://creativecommons.org/ns#"
   xmlns:rdf="http://www.w3.org/1999/02/22-rdf-syntax-ns#"
   xmlns:svg="http://www.w3.org/2000/svg"
   xmlns="http://www.w3.org/2000/svg"
   xmlns:sodipodi="http://sodipodi.sourceforge.net/DTD/sodipodi-0.dtd"
   xmlns:inkscape="http://www.inkscape.org/namespaces/inkscape"
   width="24px"
   height="40px"
   viewBox="0 0 24 40"
   version="1.1"
   id="svg10"
   sodipodi:docname="ic-nav-privacy-active.svg"
   inkscape:version="0.92.3 (2405546, 2018-03-11)">
  <metadata
     id="metadata16">
    <rdf:RDF>
      <cc:Work
         rdf:about="">
        <dc:format>image/svg+xml</dc:format>
        <dc:type
           rdf:resource="http://purl.org/dc/dcmitype/StillImage" />
      </cc:Work>
    </rdf:RDF>
  </metadata>
  <defs
     id="defs14" />
  <sodipodi:namedview
     pagecolor="#ffffff"
     bordercolor="#666666"
     borderopacity="1"
     objecttolerance="10"
     gridtolerance="10"
     guidetolerance="10"
     inkscape:pageopacity="0"
     inkscape:pageshadow="2"
     inkscape:window-width="1727"
     inkscape:window-height="967"
     id="namedview12"
     showgrid="false"
     inkscape:zoom="5.9"
     inkscape:cx="-41.220338"
     inkscape:cy="20"
     inkscape:window-x="67"
     inkscape:window-y="27"
     inkscape:window-maximized="0"
     inkscape:current-layer="svg10" />
  <!-- Generator: Sketch 52.6 (67491) - http://www.bohemiancoding.com/sketch -->
  <title
     id="title2">Privacy Active</title>
  <desc
     id="desc4">Created with Sketch.</desc>
  <g
     id="Privacy-Active"
     stroke="none"
     stroke-width="1"
     fill="none"
     fill-rule="evenodd">
    <g
       id="Group"
       transform="translate(1.000000, 13.000000)"
       fill="#B088FF"
       fill-rule="nonzero">
      <path
         d="M20.025,10.116 L17.771,0.009 L11,1.156 L4.229,0 L1.975,10.116 L0,10.116 L0,12.116 L22,12.116 L22,10.116 L20.025,10.116 Z M5.771,2.294 L11,3.183 L16.229,2.283 L17.976,10.116 L4.024,10.116 L5.771,2.294 Z"
         id="Path_18869" />
      <path
         d="M12,16.116 L10,16.116 L10,14.116 L1,14.116 L1,17.854 C1.08087292,20.2726593 3.08016383,22.1830929 5.5,22.154 C7.77023475,22.0683766 9.65187105,20.366305 9.964,18.116 L12.036,18.116 C12.3490129,20.3655153 14.2304203,22.0665369 16.5,22.152 C18.9198362,22.1810929 20.9191271,20.2706593 21,17.852 L21,14.116 L12,14.116 L12,16.116 Z M8,17.854 C7.90893564,19.1676128 6.81676551,20.186691 5.5,20.186691 C4.18323449,20.186691 3.09106436,19.1676128 3,17.854 L3,16.116 L8,16.116 L8,17.854 Z M14,16.116 L19,16.116 L19,17.854 C18.9089356,19.1676128 17.8167655,20.186691 16.5,20.186691 C15.1832345,20.186691 14.0910644,19.1676128 14,17.854 L14,16.116 Z"
         id="Path_18870" />
    </g>
  </g>
  <path
     style="fill:#88aa00;stroke-width:0.16949153"
     d="m 1.1186441,24.127102 v -0.923745 l 0.962353,-0.05083 0.9623529,-0.05083 1.1004731,-5 c 0.6052601,-2.75 1.1065233,-5.011576 1.1139181,-5.025723 0.00739,-0.01415 1.5344647,0.239176 3.3934888,0.562942 l 3.380043,0.588666 3.357245,-0.581628 c 1.846485,-0.319895 3.357245,-0.549254 3.357245,-0.509686 0,0.03957 0.495762,2.274011 1.101695,4.965429 0.605932,2.691418 1.101695,4.93652 1.101695,4.989116 0,0.0526 0.457627,0.09563 1.016949,0.09563 h 1.016949 v 0.932203 0.932203 H 12.050847 1.1186441 Z M 19.004075,22.974576 c -0.03852,-0.116525 -0.426958,-1.851695 -0.863202,-3.855932 -0.436244,-2.004237 -0.840895,-3.696995 -0.899225,-3.761684 -0.05833,-0.06469 -1.240838,0.07928 -2.627795,0.319935 l -2.52174,0.437552 -2.6408515,-0.43983 C 7.9987931,15.432711 6.7894693,15.255728 6.7638753,15.281323 c -0.06227,0.06227 -1.7469261,7.524232 -1.7469261,7.73778 0,0.107432 2.5161577,0.167338 7.0285788,0.167338 5.547219,0 7.013819,-0.04465 6.958547,-0.211865 z"
     id="path823"
     inkscape:connector-curvature="0" />
  <path
     style="fill:#88aa00;stroke-width:0.16949153"
     d="M 4.5932203,34.6469 C 3.5746776,34.165383 2.9519342,33.53273 2.4882903,32.508475 2.1975029,31.866084 2.1424507,31.391484 2.1393156,29.5 l -0.00372,-2.245763 h 4.4067797 4.4067797 v 0.932204 0.932203 h 1.016949 1.016949 v -0.932203 -0.932204 h 4.507779 4.507778 l -0.06301,2.330509 c -0.07284,2.694238 -0.276031,3.266235 -1.562555,4.398677 -1.839124,1.618863 -4.470076,1.386364 -6.170376,-0.545278 -0.405792,-0.461004 -0.81474,-1.151618 -0.942845,-1.592234 l -0.226229,-0.778114 -1.033572,-0.05024 -1.033572,-0.05024 -0.173967,0.646062 C 10.556207,32.490861 9.7451429,33.733146 9.1160969,34.181066 7.7933032,35.122978 5.9925724,35.308444 4.5932203,34.6469 Z M 7.85594,32.821265 c 0.771319,-0.476701 1.2203032,-1.47651 1.2250834,-2.728045 l 0.00372,-0.974576 H 6.5423729 4 l 6.271e-4,1.144068 c 4.746e-4,0.842443 0.089428,1.289703 0.3374339,1.696464 0.7302858,1.197765 2.337467,1.59162 3.5178726,0.862089 z m 10.892467,0.05602 c 0.824617,-0.431665 1.353288,-1.516758 1.353288,-2.777609 V 29.11864 h -2.56032 -2.560319 l 0.06079,1.33866 c 0.04721,1.039691 0.136392,1.423643 0.399302,1.719182 0.900027,1.011729 2.190797,1.285241 3.307257,0.700803 z"
     id="path825"
     inkscape:connector-curvature="0" />
  <path
     style="fill:#ff0000;stroke-width:0.16949153"
     d="m 1.1186441,24.118644 v -0.932203 h 0.9915253 0.9915253 l 1.0777404,-4.934146 c 0.5927571,-2.71378 1.1571641,-4.963789 1.2542374,-5.000021 0.097073,-0.03623 1.6256495,0.183988 3.396836,0.489376 l 3.2203385,0.555251 3.281331,-0.56486 c 1.804732,-0.310673 3.303154,-0.541458 3.329829,-0.512857 0.02667,0.0286 0.539003,2.263867 1.138512,4.967257 l 1.090015,4.915254 1.046259,0.05046 1.046258,0.05046 v 0.924116 0.924115 H 12.050847 1.1186441 Z M 18.982017,23.046047 c 0.104293,-0.168751 -1.539189,-7.501524 -1.722357,-7.684692 -0.118913,-0.118913 -2.214474,0.141595 -4.191863,0.521107 -0.675109,0.129571 -1.392927,0.0756 -3.5295804,-0.265355 -1.4751673,-0.235402 -2.727563,-0.382563 -2.7831017,-0.327024 -0.1167637,0.116764 -1.5049902,6.084766 -1.6675608,7.168864 l -0.1090944,0.727494 h 6.9583943 c 3.827117,0 6.997441,-0.06318 7.045163,-0.140394 z"
     id="path822"
     inkscape:connector-curvature="0" />
  <path
     style="fill:#ff0000;stroke-width:0.16949153"
     d="M 5.5566517,34.853451 C 4.2832507,34.631118 3.0642248,33.65872 2.5671563,32.468777 2.3984143,32.064821 2.2630262,31.007139 2.1929055,29.545048 L 2.0830402,27.254237 h 4.4330562 4.4330566 v 0.932204 0.932203 h 1.016949 1.016949 v -0.932203 -0.932204 h 4.501735 4.501736 l -0.110998,2.076271 c -0.143673,2.687436 -0.289717,3.215195 -1.148905,4.151777 -1.807319,1.970118 -4.527646,1.956612 -6.360295,-0.03158 -0.373039,-0.4047 -0.817733,-1.128533 -0.988209,-1.608519 l -0.309956,-0.872703 -1.079033,0.04916 -1.079032,0.04915 -0.320277,0.860284 c -0.7989417,2.146005 -2.808225,3.313838 -5.0331653,2.92537 z M 7.8657868,32.843322 C 8.6095102,32.389886 9.0762859,31.333564 9.0810234,30.09322 l 0.00372,-0.974576 H 6.5244263 3.9641068 l 0.060792,1.33866 c 0.065698,1.446686 0.2460171,1.795926 1.2462879,2.413788 0.6829402,0.421848 1.8781212,0.409056 2.5946001,-0.02777 z m 11.0169492,0 c 0.743723,-0.453436 1.2105,-1.509758 1.215237,-2.750102 l 0.0037,-0.974576 h -2.604488 -2.604488 l 0.08427,1.228814 c 0.04635,0.675847 0.190093,1.437447 0.319427,1.692443 0.527222,1.039474 2.481177,1.477207 3.586317,0.803421 z"
     id="path824"
     inkscape:connector-curvature="0" />
  <path
     style="fill:#000000;stroke-width:0.16949153"
     d="m 1.1186446,24.118644 v -0.932203 h 1.0055275 c 0.8106962,0 1.0227975,-0.05747 1.0946586,-0.29661 0.049022,-0.163136 0.3606583,-1.555085 0.6925249,-3.093221 1.1923403,-5.52626 1.4553759,-6.44085 1.8519088,-6.439194 0.195459,8.16e-4 1.6901259,0.22645 3.3214819,0.501409 l 2.9661017,0.499925 3.183771,-0.529502 c 1.917311,-0.318873 3.242905,-0.467761 3.332429,-0.37429 0.08176,0.08537 0.626575,2.309873 1.210697,4.943347 l 1.062039,4.788136 h 1.071633 1.071634 v 0.932203 0.932203 H 12.050848 1.1186446 Z M 18.95367,22.59322 c -0.07196,-0.789786 -1.411205,-6.741819 -1.595069,-7.089009 -0.17993,-0.339765 -0.01116,-0.347734 -3.231294,0.152585 -1.780571,0.276651 -1.883448,0.274302 -4.5408282,-0.103665 C 7.9621947,15.322104 6.8084149,15.228439 6.7207503,15.320489 6.5743313,15.474232 5.5242886,19.84098 5.1065424,22.033397 L 4.8861369,23.190129 11.943069,23.145912 19,23.101695 Z"
     id="path821"
     inkscape:connector-curvature="0" />
  <path
     style="fill:#000000;stroke-width:0.16949153"
     d="M 5.1505424,34.689044 C 4.3583305,34.465802 3.010036,33.292422 2.703946,32.559845 2.5086411,32.092415 2.1475139,28.94874 2.1382764,27.635593 l -0.00268,-0.381356 h 4.4067797 4.4067799 v 0.932204 0.932203 h 1.016949 1.016949 v -0.932203 -0.932204 h 4.493006 4.493006 l -0.0812,0.889831 c -0.04466,0.489407 -0.120941,1.42996 -0.169505,2.090119 -0.136946,1.861576 -0.252691,2.217436 -0.995846,3.061704 -0.832218,0.945448 -2.105175,1.582153 -3.163184,1.582153 -1.606464,0 -3.385315,-1.328323 -4.108165,-3.067693 l -0.34381,-0.8273 h -1.130361 -1.130361 l -0.298155,0.829141 C 10.1734,32.85523 9.2539022,33.940712 8.3584659,34.397529 7.5564886,34.806668 6.0528434,34.943309 5.1505424,34.689044 Z M 8.085383,32.752356 C 8.6797456,32.223413 9.0769395,31.162597 9.0810239,30.09322 l 0.00372,-0.974576 H 6.4919678 3.8991893 l 0.065581,1.144068 c 0.1224579,2.136292 0.9570044,3.000292 2.7831161,2.881341 0.6494488,-0.0423 1.0898032,-0.171266 1.3374966,-0.391697 z m 11.01695,0 c 0.594362,-0.528943 0.991556,-1.589759 0.99564,-2.659136 l 0.0037,-0.974576 h -2.627118 -2.627119 v 0.570087 c 0,0.967694 0.327017,2.355832 0.637007,2.703998 0.498017,0.559349 1.244905,0.802921 2.28037,0.743664 0.658359,-0.03768 1.086406,-0.160582 1.337498,-0.384037 z"
     id="path826"
     inkscape:connector-curvature="0" />
</svg>
