<?xml version="1.0" encoding="UTF-8" standalone="no"?>
<svg
   xmlns:dc="http://purl.org/dc/elements/1.1/"
   xmlns:cc="http://creativecommons.org/ns#"
   xmlns:rdf="http://www.w3.org/1999/02/22-rdf-syntax-ns#"
   xmlns:svg="http://www.w3.org/2000/svg"
   xmlns="http://www.w3.org/2000/svg"
   xmlns:sodipodi="http://sodipodi.sourceforge.net/DTD/sodipodi-0.dtd"
   xmlns:inkscape="http://www.inkscape.org/namespaces/inkscape"
   width="24px"
   height="40px"
   viewBox="0 0 24 40"
   version="1.1"
   id="svg13"
   sodipodi:docname="ic-nav-send-active.svg"
   inkscape:version="0.92.3 (2405546, 2018-03-11)">
  <metadata
     id="metadata19">
    <rdf:RDF>
      <cc:Work
         rdf:about="">
        <dc:format>image/svg+xml</dc:format>
        <dc:type
           rdf:resource="http://purl.org/dc/dcmitype/StillImage" />
      </cc:Work>
    </rdf:RDF>
  </metadata>
  <defs
     id="defs17" />
  <sodipodi:namedview
     pagecolor="#ffffff"
     bordercolor="#666666"
     borderopacity="1"
     objecttolerance="10"
     gridtolerance="10"
     guidetolerance="10"
     inkscape:pageopacity="0"
     inkscape:pageshadow="2"
     inkscape:window-width="1836"
     inkscape:window-height="993"
     id="namedview15"
     showgrid="false"
     inkscape:zoom="5.9"
     inkscape:cx="-41.220338"
     inkscape:cy="20"
     inkscape:window-x="67"
     inkscape:window-y="27"
     inkscape:window-maximized="0"
     inkscape:current-layer="svg13" />
  <!-- Generator: Sketch 52.6 (67491) - http://www.bohemiancoding.com/sketch -->
  <title
     id="title2">Send</title>
  <desc
     id="desc4">Created with Sketch.</desc>
  <g
     id="Send"
     stroke="none"
     stroke-width="1"
     fill="none"
     fill-rule="evenodd">
    <g
       id="ic-send"
       transform="translate(-1.000000, 11.000000)">
      <g
         id="Group_8811"
         transform="translate(1.000000, 1.000000)"
         fill="#B088FF">
        <polygon
           id="Path_18865"
           points="0.352 9.1 7.562 13.606 9.014 12.154 4.914 9.59 19.714 4.283 14.407 19.083 11.842 14.983 10.391 16.434 14.9 23.648 23.025 0.975" />
        <g
           id="Group_8810"
           transform="translate(8.000000, 8.000000)">
          <polygon
             id="Rectangle_4394"
             transform="translate(3.823718, 4.176339) rotate(-45.000000) translate(-3.823718, -4.176339) "
             points="-0.176282346 3.17633883 7.82371765 3.17633883 7.82371765 5.17633883 -0.176282346 5.17633883" />
        </g>
      </g>
      <polygon
         id="Rectangle_4395"
         points="0 0 26 0 26 26 0 26" />
    </g>
  </g>
  <path
     style="fill:#88aa00;stroke-width:0.16949153"
     d="m 9.0067077,26.990737 -0.6286652,-0.643812 2.7935805,-2.789731 2.79358,-2.789731 0.634314,0.634314 0.634314,0.634314 -2.799229,2.799229 -2.799229,2.799229 z"
     id="path826"
     inkscape:connector-curvature="0" />
  <path
     style="fill:#88aa00;stroke-width:0.16949153"
     d=""
     id="path828"
     inkscape:connector-curvature="0" />
  <path
     style="fill:#88aa00;stroke-width:0.16949153"
     d="m 12.713961,32.030959 c -1.175729,-1.876145 -2.13769,-3.466503 -2.13769,-3.534126 0,-0.06762 0.291549,-0.407642 0.647886,-0.755596 l 0.647885,-0.632643 1.177028,1.893975 c 0.647365,1.041687 1.243868,1.901999 1.325562,1.911806 0.152593,0.01832 5.413526,-14.47085 5.2967,-14.587675 -0.119179,-0.11918 -14.5058262,5.111289 -14.5324264,5.283469 -0.014402,0.09322 0.8240193,0.697859 1.8631578,1.34364 l 1.8893427,1.174149 -0.6326434,0.647885 C 7.910809,25.13218 7.570791,25.423729 7.5031673,25.423729 c -0.1660739,0 -6.95904061,-4.262082 -6.89372633,-4.325301 C 0.7870721,20.926495 22.643631,13.197303 22.724242,13.277914 c 0.08096,0.08096 -7.650649,21.938255 -7.821934,22.112645 -0.02786,0.02837 -1.012618,-1.483452 -2.188347,-3.3596 z"
     id="path830"
     inkscape:connector-curvature="0" />
  <path
     style="fill:#ff0000;stroke-width:0.16949153"
     d="m 9.0912619,26.906104 -0.5428974,-0.560128 2.7082315,-2.704264 2.708232,-2.704263 0.549529,0.549528 0.549528,0.549529 -2.714863,2.714863 -2.7148627,2.714863 z"
     id="path823"
     inkscape:connector-curvature="0" />
  <path
     style="fill:#ff0000;stroke-width:0.16949153"
     d="m 13.16468,32.592964 c -0.928917,-1.47274 -1.872252,-3.000034 -2.096301,-3.393985 l -0.407362,-0.716276 0.601924,-0.603162 0.601923,-0.603162 1.235578,1.906323 c 0.981386,1.514139 1.267241,1.849744 1.389484,1.631306 0.533346,-0.953035 5.319127,-14.349588 5.177011,-14.491703 -0.204112,-0.204112 -14.3597975,4.993565 -14.4657897,5.311541 -0.035365,0.106096 0.7438702,0.711142 1.7316341,1.344548 l 1.795934,1.151648 -0.6057091,0.60447 -0.6057092,0.604471 -0.7162757,-0.407362 C 5.5620688,24.227001 0.72693208,21.148659 0.77991675,21.09822 0.97066229,20.916637 22.472071,13.364727 22.556875,13.44953 c 0.08289,0.08289 -7.477436,21.583929 -7.655095,21.770553 -0.02649,0.02782 -0.808184,-1.154378 -1.7371,-2.627119 z"
     id="path825"
     inkscape:connector-curvature="0" />
  <path
     style="fill:#000000;stroke-width:0.16949153"
     d="m 14.550075,34.623934 c -0.602142,-0.917393 -3.457352,-5.478772 -3.621834,-5.786109 -0.133743,-0.249902 -0.05639,-0.418957 0.389367,-0.851005 l 0.556265,-0.539154 1.131797,1.699896 c 0.622489,0.934943 1.229062,1.699896 1.347939,1.699896 0.251235,0 0.225138,0.06235 2.057404,-4.915255 2.027296,-5.507424 3.381703,-9.484121 3.26866,-9.597163 -0.287471,-0.287471 -14.3343986,4.866426 -14.4836317,5.314126 -0.033886,0.101657 0.7096366,0.698271 1.6522721,1.325809 l 1.7138825,1.140978 -0.5475581,0.564936 -0.547558,0.564937 -0.606421,-0.365421 C 5.3478091,23.968782 1.5638101,21.589443 1.247973,21.351207 c -0.33258598,-0.25087 -0.2235427,-0.309676 2.1585,-1.164046 6.665156,-2.3906 18.914878,-6.634171 18.975517,-6.573533 0.09223,0.09223 -7.282587,21.236531 -7.475868,21.434035 -0.02565,0.02621 -0.185876,-0.164465 -0.356047,-0.423729 z"
     id="path829"
     inkscape:connector-curvature="0" />
  <path
     style="fill:#000000;stroke-width:0.16949153"
     d="m 9.1044434,26.7994 -0.3701333,-0.469979 2.6149949,-2.610913 2.614994,-2.610912 0.464053,0.464053 0.464052,0.464052 -2.622117,2.626217 c -1.442164,1.44442 -2.6611755,2.621998 -2.7089136,2.61684 -0.047738,-0.0052 -0.2533567,-0.220869 -0.45693,-0.479358 z"
     id="path831"
     inkscape:connector-curvature="0" />
</svg>
