<?xml version="1.0" encoding="UTF-8" standalone="no"?>
<svg
   xmlns:dc="http://purl.org/dc/elements/1.1/"
   xmlns:cc="http://creativecommons.org/ns#"
   xmlns:rdf="http://www.w3.org/1999/02/22-rdf-syntax-ns#"
   xmlns:svg="http://www.w3.org/2000/svg"
   xmlns="http://www.w3.org/2000/svg"
   xmlns:sodipodi="http://sodipodi.sourceforge.net/DTD/sodipodi-0.dtd"
   xmlns:inkscape="http://www.inkscape.org/namespaces/inkscape"
   id="ic_unlock_staking"
   width="24"
   height="24"
   viewBox="0 0 24 24"
   version="1.1"
   sodipodi:docname="ic-wallet-status-staking.svg"
   inkscape:version="0.92.3 (2405546, 2018-03-11)">
  <metadata
     id="metadata12">
    <rdf:RDF>
      <cc:Work
         rdf:about="">
        <dc:format>image/svg+xml</dc:format>
        <dc:type
           rdf:resource="http://purl.org/dc/dcmitype/StillImage" />
      </cc:Work>
    </rdf:RDF>
  </metadata>
  <sodipodi:namedview
     pagecolor="#ffffff"
     bordercolor="#666666"
     borderopacity="1"
     objecttolerance="10"
     gridtolerance="10"
     guidetolerance="10"
     inkscape:pageopacity="0"
     inkscape:pageshadow="2"
     inkscape:window-width="1818"
     inkscape:window-height="1038"
     id="namedview10"
     showgrid="false"
     inkscape:zoom="9.8333333"
     inkscape:cx="-3.9661017"
     inkscape:cy="12"
     inkscape:window-x="67"
     inkscape:window-y="27"
     inkscape:window-maximized="0"
     inkscape:current-layer="ic_unlock_staking" />
  <defs
     id="defs4">
    <style
       type="text/css"
       id="style2">
            .cls-1{fill:none}.cls-2{fill:#7c7687}
        </style>
  </defs>
  <g
     id="Group_8891"
     data-name="Group 8891">
    <path
       id="Rectangle_4445"
       d="M0 0h24v24H0z"
       class="cls-1"
       data-name="Rectangle 4445" />
  </g>
  <path
     id="Path_18910"
     d="M19.448 11.966l1.259-1.259-1.414-1.414-1.259 1.259A10.963 10.963 0 0 0 13 8.191V7A5 5 0 0 0 3 7v1H2v10h7.16l2-2H4v-6h8v5.16l2-2v-2.635a8.992 8.992 0 0 1 2.611 1.45l-8.818 8.818 1.414 1.414 8.818-8.818A8.948 8.948 0 0 1 20 19v1h2v-1a10.953 10.953 0 0 0-2.552-7.034zM11 8H5V7a3 3 0 0 1 6 0z"
     class="cls-2"
     data-name="Path 18910" />
  <path
     style="fill:#668000;stroke-width:0.10169491"
     d="m 8.5164196,21.482713 -0.6838052,-0.689085 4.4185016,-4.417626 4.418502,-4.417626 -0.478877,-0.34774 c -0.418126,-0.303626 -2.028136,-1.13606 -2.197251,-1.13606 -0.03371,0 -0.06129,0.60726 -0.06129,1.349466 v 1.349466 L 12.966102,14.135593 12,15.097678 V 12.53189 9.9661017 H 7.9830508 3.9661017 v 3.0508473 3.050848 H 7.4979915 11.029881 L 10.067797,17.033898 9.105712,18 H 5.5698051 2.0338983 V 13.016949 8.0338983 H 2.5423729 3.0508475 V 7.276192 c 0,-1.8974107 0.7663522,-3.4308334 2.1853218,-4.3726918 2.5359279,-1.6832529 5.8323687,-0.7849574 7.1979467,1.9614739 0.413243,0.8311078 0.422484,0.8729352 0.463226,2.0967307 l 0.04157,1.2487057 0.878001,0.2217678 c 1.074681,0.2714459 2.689464,1.0338172 3.560633,1.6810467 l 0.648733,0.481972 0.625185,-0.6196281 0.625184,-0.619628 0.682945,0.6882181 0.682944,0.688218 -0.619632,0.619632 -0.619633,0.619633 0.47898,0.649772 c 1.302084,1.766379 2.082327,4.190053 2.08344,6.471806 l 4.09e-4,0.838983 h -0.951306 -0.951308 l -0.05753,-1.245762 c -0.08592,-1.860373 -0.526639,-3.222344 -1.530271,-4.72904 l -0.423529,-0.63582 -4.425965,4.425109 -4.4259662,4.425109 z M 11.053497,7.1630237 C 10.947377,5.6592931 10.258977,4.6112202 9.0901765,4.173916 7.9237206,3.7374889 6.7860077,3.9876219 5.8907691,4.8773249 5.1943592,5.5694287 4.9830508,6.1190776 4.9830508,7.2384548 v 0.7954435 h 3.0659525 3.0659527 z"
     id="path822"
     inkscape:connector-curvature="0" />
  <path
     style="fill:#ff0000;stroke-width:0.10169491"
     d="M 8.5137658,21.480102 C 8.1939064,21.15687 7.9322033,20.848166 7.9322033,20.794094 c 0,-0.05407 1.9750008,-2.073704 4.3888907,-4.488073 l 4.388891,-4.38976 -0.549908,-0.351273 c -0.632039,-0.403737 -1.969378,-1.090412 -2.12364,-1.090412 -0.06594,0 -0.104234,0.495707 -0.104234,1.349466 v 1.349467 L 12.966102,14.135593 12,15.097678 V 12.53189 9.9661017 H 7.9830508 3.9661017 v 3.0508473 3.050848 H 7.4979915 11.029881 L 10.067797,17.033898 9.1057119,18 H 5.569805 2.0338983 V 13.016949 8.0338983 H 2.5273627 3.0208271 L 3.0876741,7.082923 C 3.2016853,5.46098 3.6254627,4.4323383 4.5450303,3.5454592 5.5599759,2.5665923 6.6072358,2.1355933 7.9707823,2.1355933 c 1.9593734,0 3.5553877,1.0133084 4.4674257,2.8363664 0.322286,0.6442104 0.355236,0.7983477 0.423436,1.9807691 l 0.07395,1.2821979 0.422031,0.1063596 c 1.408974,0.3550866 2.730447,0.944995 3.916981,1.7485487 l 0.749186,0.507369 0.575796,-0.569788 c 0.316688,-0.313384 0.621665,-0.5697888 0.677727,-0.5697888 0.128607,0 1.265054,1.1419558 1.265054,1.2711868 0,0.05269 -0.256405,0.354905 -0.569789,0.671593 l -0.569788,0.575797 0.50721,0.749186 c 1.258452,1.85882 1.87443,3.712265 2.017698,6.071143 l 0.06898,1.13567 h -0.928605 c -1.083183,0 -0.990732,0.126879 -1.074456,-1.474576 -0.08859,-1.694443 -0.531375,-3.012664 -1.543318,-4.594585 l -0.36656,-0.573027 -4.389761,4.388891 c -2.414369,2.41389 -4.4367613,4.388891 -4.494206,4.388891 -0.057445,0 -0.366148,-0.264463 -0.6860082,-0.587695 z M 11.113798,7.5 C 11.035881,6.5277558 10.876372,5.9318222 10.545812,5.3779828 9.6129557,3.8150206 7.4318176,3.4836332 6.0548812,4.6956611 5.7991998,4.9207209 5.4660963,5.3162963 5.3146514,5.5747176 5.077752,5.9789559 5.0337175,6.1834855 4.999346,7.0392364 L 4.959395,8.0338983 h 3.0985948 3.0985952 z"
     id="path819"
     inkscape:connector-curvature="0" />
</svg>
